<svg width="32" height="32" viewBox="0 0 32 32" fill="none" xmlns="http://www.w3.org/2000/svg">
<path d="M1 16.7844C1 8.61919 7.61919 2 15.7844 2L17.1989 2C24.4238 2 30.2808 7.85698 30.2808 15.0819C30.2808 22.3069 24.4238 28.1638 17.1989 28.1638L6.01658 28.1638L2.06037 30.1846C2.00283 30.214 1.95147 30.254 1.89847 30.291C1.53157 30.5467 0.999999 30.2903 1 29.8167L1 24.3028V16.7844Z" fill="#FFD21E"/>
<path d="M20.1086 13.0502C20.598 13.2237 20.7928 14.2338 21.2872 13.9699C22.2235 13.4701 22.579 12.3028 22.0811 11.3628C21.5833 10.4227 20.4206 10.0658 19.4843 10.5657C18.5479 11.0655 18.1924 12.2328 18.6903 13.1728C18.9253 13.6165 19.6711 12.8951 20.1086 13.0502Z" fill="#32343D"/>
<path d="M11.0621 13.0502C10.5727 13.2237 10.3779 14.2338 9.88354 13.9699C8.94719 13.4701 8.59173 12.3028 9.08959 11.3628C9.58746 10.4227 10.7501 10.0658 11.6865 10.5657C12.6228 11.0655 12.9783 12.2328 12.4804 13.1728C12.2454 13.6165 11.4996 12.8951 11.0621 13.0502Z" fill="#32343D"/>
<path d="M15.6767 22.3026C19.4512 22.3026 20.6692 18.924 20.6692 17.189C20.6692 15.4541 18.434 18.1081 15.6767 18.1081C12.9195 18.1081 10.6843 15.4541 10.6843 17.189C10.6843 18.924 11.9023 22.3026 15.6767 22.3026Z" fill="#32343D"/>
<path d="M18.7088 21.3155C17.9621 21.9063 16.9693 22.3025 15.6767 22.3025C14.4622 22.3025 13.5124 21.9527 12.7827 21.4205C13.1887 20.5925 13.9259 19.9576 14.8208 19.6902C14.9743 19.6443 15.1324 19.9097 15.2943 20.1814C15.4505 20.4435 15.6102 20.7115 15.7727 20.7115C15.9458 20.7115 16.1159 20.4472 16.2819 20.1893C16.4553 19.9199 16.6243 19.6573 16.7878 19.7098C16.8355 19.7251 16.8827 19.7415 16.9294 19.7588C17.6944 20.0433 18.327 20.6017 18.7088 21.3155Z" fill="#FF323D"/>
</svg>
