<?xml version="1.0" encoding="UTF-8"?>
<svg id="Layer_1" data-name="Layer 1" xmlns="http://www.w3.org/2000/svg" version="1.1" viewBox="0 0 32 32">
  <defs>
    <style>
      .cls-1 {
        fill: #7ccb46;
      }

      .cls-1, .cls-2 {
        stroke-width: 0px;
      }

      .cls-2 {
        fill: #fff;
      }
    </style>
  </defs>
  <rect class="cls-2" x="3" y="5" width="26.8" height="24.1"/>
  <path class="cls-1" d="M30.7,1.4c-2.2,0-4.5,0-6.7,0-2.7,0-5.4,0-8.1,0h0c-4.9,0-9.8,0-14.7,0s0,0,0,0q-.1,0-.1.1s0,0,0,0c0,1.1,0,2.2,0,3.3,0,2.4,0,4.8,0,7.2,0,5.6,0,11.1,0,16.7,0,.5,0,1.1,0,1.6,0,.1,0,.1.1.1.4,0,.9,0,1.3,0,8.7,0,17.4,0,26,0,.7,0,1.5,0,2.2,0,.1,0,.1,0,.1-.1,0,0,0-.2,0-.3,0-9.5,0-19.1,0-28.6,0-.2,0-.2-.2-.2ZM23.1,7.9c.6,0,1,.4,1,1,0,.6-.3,1.1-1,1.1-.6,0-1-.4-1-1,0-.7.5-1,1-1ZM20.7,9.6c.5,0,1,.4,1.1.8,0,0,0,0,0,0,0,0,0,.2,0,.3,0,0,0,.1,0,.2,0,.3-.1.5-.3.6-.4.3-.9.4-1.3.2,0,0,0,0,0,0-.4-.1-.5-.4-.6-.8-.2-.8.4-1.5,1.2-1.4ZM18.2,11.9c.9,0,1.3.6,1.3,1.3,0,.8-.7,1.3-1.4,1.3-.7,0-1.3-.6-1.3-1.3,0-.8.6-1.3,1.3-1.3ZM16.7,15c.5.2.8.5,1,1,0,.1,0,.3,0,.4,0,.7-.4,1.3-1.1,1.5-1.1.3-1.8-.4-2-1.3-.1-.7.4-1.6,1.1-1.7.3,0,.7,0,1,0ZM13.9,11.9c.2,0,.4,0,.6,0,.5.1.8.4.9.9,0,.1,0,.2,0,.3,0,.9-.8,1.4-1.4,1.4-.6,0-1.3-.7-1.2-1.5,0-.6.5-1.1,1.1-1.2ZM10.5,10.4c0-.6.9-1,1.4-.8.4.1.7.4.8.8,0,0,0,.2,0,.3,0,.7-.5,1.1-1.1,1.2,0,0,0,0-.1,0-.5,0-1.1-.5-1.2-1,0-.2,0-.4,0-.5ZM9.1,7.9c.5,0,1,.5,1,1,0,.5-.4,1-1.1,1-.7,0-1-.6-1-1.1,0-.5.5-1,1-1ZM5.5,9.3c-.2.4-.5.5-.8.6-.6,0-1-.4-1.1-.9,0-.5.3-1,.7-1.1.2,0,.4,0,.7,0,.2,0,.4.2.5.5.1.3.1.7,0,1ZM7.1,11.9c-.7,0-1.2-.5-1.2-1.1,0-.6.6-1.2,1.2-1.2.6,0,1.2.4,1.2,1.2,0,.7-.4,1.1-1.2,1.2ZM9.3,14.5c-.6,0-1-.4-1.2-1-.2-.6.2-1.5,1.1-1.6.2,0,.4,0,.5,0,.6.1,1,.6,1,1.3,0,.9-.8,1.4-1.5,1.3ZM11.4,18c-.6,0-1.3-.5-1.4-1.4,0,0,0-.2,0-.2,0-.8.4-1.3,1.2-1.5,1.1-.2,1.7.4,1.9,1.2,0,.3,0,.6,0,.8-.3.6-.9,1-1.6,1ZM13.1,21.7c-.7-.5-.9-1.4-.4-2.3.2-.3.5-.5.9-.6.4-.1.9-.1,1.3,0,.5.2.7.6.9,1.1.1.6,0,1.2-.5,1.6-.3.3-.7.4-1.1.4-.4,0-.8,0-1.1-.3ZM16.5,25.9c-.2,0-.5,0-.7,0-.8-.1-1.3-.8-1.3-1.6,0-.7.3-1.1.8-1.5.3-.2.6-.2,1-.2.9,0,1.4.7,1.6,1.3.2,1-.5,1.8-1.3,2ZM19.3,21.7c-.3.2-.6.3-1.1.3-.9,0-1.6-.9-1.5-1.9,0-.8.7-1.3,1.2-1.4.3,0,.6,0,1,0,.6.2,1,.6,1.1,1.2.2.7,0,1.4-.7,1.8ZM20.9,18c-.8,0-1.8-.5-1.7-1.7,0-.6.6-1.2,1.2-1.3.1,0,.2,0,.3,0,.9,0,1.6.7,1.6,1.5,0,.9-.7,1.5-1.4,1.5ZM22.8,14.5c-.7,0-1.3-.5-1.4-1.2,0-.5.3-1.2.8-1.4.3,0,.7-.1,1,0,.5.2.7.5.8,1,0,0,0,.2,0,.2,0,.9-.7,1.3-1.3,1.3ZM25.2,11.9c-.7,0-1.2-.5-1.2-1.2,0-.7.6-1.2,1.2-1.2.6,0,1.2.5,1.2,1.2,0,.6-.5,1.1-1.2,1.1ZM27.6,9.8c-.5,0-1-.5-1-1.1,0-.5.5-1,1-1,.6,0,1,.5,1,1,0,.7-.6,1-1,1Z"/>
</svg>