<svg xmlns="http://www.w3.org/2000/svg" width="32" height="32" fill="none">
	<path
		fill="#FFD21E"
		d="M4 15.55C4 9.72 8.72 5 14.55 5h4.11a9.34 9.34 0 1 1 0 18.68H7.58l-2.89 2.8a.41.41 0 0 1-.69-.3V15.55Z"
	/>
	<path
		fill="#32343D"
		d="M19.63 12.48c.37.14.52.9.9.7.71-.38.98-1.27.6-1.98a1.46 1.46 0 0 0-1.98-.61 1.47 1.47 0 0 0-.6 1.99c.17.34.74-.21 1.08-.1ZM12.72 12.48c-.37.14-.52.9-.9.7a1.47 1.47 0 0 1-.6-1.98 1.46 1.46 0 0 1 1.98-.61c.71.38.98 1.27.6 1.99-.18.34-.74-.21-1.08-.1ZM16.24 19.55c2.89 0 3.82-2.58 3.82-3.9 0-1.33-1.71.7-3.82.7-2.1 0-3.8-2.03-3.8-.7 0 1.32.92 3.9 3.8 3.9Z"
	/>
	<path
		fill="#FF323D"
		d="M18.56 18.8c-.57.44-1.33.75-2.32.75-.92 0-1.65-.27-2.2-.68.3-.63.87-1.11 1.55-1.32.12-.03.24.17.36.38.12.2.24.4.37.4s.26-.2.39-.4.26-.4.38-.36a2.56 2.56 0 0 1 1.47 1.23Z"
	/>
</svg>
