<?xml version="1.0" encoding="utf-8"?>
<svg version="1.2" baseProfile="tiny-ps" xmlns="http://www.w3.org/2000/svg" width="32" height="32" viewBox="0 0 500 500" preserveAspectRatio="xMidYMid meet">
 <g fill="#0a151f">
  <path d="M241.75 499.60 c-0.30 -0.25 -1.85 -0.75 -3.50 -1.05 -5.25 -1.10 -11.05 -4.30 -15.05 -8.30 -5.95 -5.90 -8.90 -12 -9.55 -19.65 l-0.30 -3.60 -3.55 -1.05 c-1.95 -0.55 -6.25 -1.90 -9.55 -2.95 -6.50 -2.05 -29.30 -9.05 -45.75 -14 -5.65 -1.70 -15.75 -4.75 -22.50 -6.85 -18.65 -5.70 -39.85 -12 -65.35 -19.45 -26.35 -7.60 -29.35 -8.80 -33.65 -13.55 -3.85 -4.20 -6 -9.05 -6.60 -14.75 -0.25 -2.60 -0.35 -41.30 -0.25 -91.60 0.15 -95.20 0 -90.05 3.15 -108.20 5.10 -29.65 17.25 -60.05 33.60 -83.85 13.05 -19 29.60 -36.60 47.85 -50.80 30.95 -24.15 72.15 -41.35 111.85 -46.70 9.95 -1.35 31 -2 42.20 -1.35 51.70 3 96.50 21 136.70 55.05 6.55 5.60 18.55 17.50 24.40 24.35 9.85 11.50 20.05 26.45 26.90 39.45 13.40 25.55 21.70 53.85 23.95 81.90 0.65 7.90 0.75 23.45 0.75 96 0 84.75 0 86.70 -1 90.05 -0.55 1.90 -1.70 4.70 -2.60 6.20 -2.05 3.35 -7 8.10 -10.10 9.55 -1.25 0.65 -7.95 2.80 -14.90 4.80 -20.60 6 -63.80 19 -97.15 29.25 -9.05 2.80 -21.20 6.55 -27 8.35 -5.75 1.75 -16 5 -22.80 7.15 l-12.25 3.95 0.20 1.70 c0.75 6.45 -4.65 16.95 -11.50 22.35 -4.35 3.45 -12.55 7 -16.20 7 -0.90 0 -1.80 0.25 -1.95 0.50 -0.40 0.60 -17.85 0.70 -18.50 0.10z m56.35 -55.80 c0.10 -0.70 1.50 -1.40 5.90 -2.85 5.60 -1.85 8.05 -2.35 7.95 -1.55 -0.15 1 0.20 1.05 1.85 0.35 1 -0.40 2.40 -0.85 3.15 -1 0.70 -0.10 2.75 -0.65 4.55 -1.20 6.70 -2.10 27 -8.25 34 -10.30 4 -1.15 12.45 -3.70 18.75 -5.65 45.10 -13.80 63.45 -19.15 76.35 -22.35 8.15 -2 7.50 -1.30 7.35 -7.85 -0.15 -4.80 -0.30 -5.60 -1.05 -5.80 -1.35 -0.35 -1.25 -3.90 0.10 -4.35 0.95 -0.30 1 -0.65 0.90 -6.65 l-0.15 -6.35 -3.75 0.15 c-29.55 1.15 -76.95 15.85 -107.10 33.30 -18.95 10.95 -33.15 22.30 -56.65 45.35 l-1.50 1.50 4.60 -1.90 c3.30 -1.35 4.65 -2.15 4.75 -2.85z m-45.60 3.35 c0 -2.55 8.70 -18.90 15.10 -28.40 13.25 -19.70 38.05 -46.45 60.55 -65.40 4.60 -3.85 17.35 -13.35 24.15 -17.95 20.40 -13.80 45.10 -25.60 71.55 -34.05 12.65 -4.10 22.50 -6.10 31.65 -6.50 l2.75 -0.10 0 -40 c0 -42.70 -0.15 -45.55 -2.55 -58.25 -7.60 -39.50 -23.50 -70.85 -50.45 -99.65 -30 -32.05 -68.05 -53.25 -112 -62.30 -48.45 -10 -102.30 -1.20 -146.25 23.85 -29.50 16.80 -54.25 40.35 -72.40 68.85 -4.05 6.40 -12.65 23.55 -15.95 32 -4.80 12.30 -9.15 28.05 -11.10 40.30 -2.15 13.65 -2.55 22 -2.75 64.55 l-0.15 30.35 3.30 0.30 c14.10 1.40 26.10 4.50 45.35 11.75 14.95 5.65 20.75 8.35 35.70 16.45 14 7.55 20.10 11.50 33.85 21.65 11.35 8.40 19.30 15.15 33.50 28.45 17.10 16 34.15 36.35 43.90 52.45 2.55 4.20 9.25 17 9.25 17.65 0 0.15 0.45 1.30 1 2.55 0.95 2.30 2 3.05 2 1.45z m-46.85 -6.85 c-17.35 -16.85 -34.75 -29.80 -56.50 -42 -16.65 -9.40 -46.05 -20.10 -69.20 -25.25 -9.60 -2.15 -29.05 -5.05 -33.85 -5.05 l-1.15 0 0.25 5.65 c0.15 3.05 0.25 6 0.25 6.50 0.05 0.45 0.40 0.85 0.80 0.85 0.55 0 0.75 0.60 0.75 2.50 0 1.90 -0.20 2.50 -0.75 2.50 -0.60 0 -0.75 0.90 -0.75 5.20 0 4.55 0.10 5.25 0.90 5.50 0.45 0.15 8.15 2.30 17.10 4.80 8.95 2.50 21.55 6.15 28 8.10 6.45 1.95 17.95 5.40 25.50 7.65 26.35 7.85 55.80 16.80 64.70 19.65 6.35 2 9.05 2.65 9.20 2.20 0.25 -0.85 1.25 -0.75 5.85 0.60 2.35 0.65 4.50 1.65 5.25 2.35 0.70 0.70 2.35 1.65 3.70 2.15 1.35 0.50 3.35 1.45 4.50 2.10 1.10 0.65 2.25 1.20 2.45 1.20 0.20 0 -2.95 -3.25 -7 -7.20z m72.35 -3.90 c5.55 -7 11.55 -13.20 20 -20.75 23.90 -21.40 46.30 -34.95 79.50 -48.15 22.45 -8.90 54.60 -16.60 73 -17.40 l7.25 -0.35 0.15 -7.60 c0.10 -7.30 0.10 -7.65 -0.85 -7.65 -0.90 0 -0.95 -0.25 -0.70 -3.60 0.20 -2 0.60 -3.95 1 -4.30 0.45 -0.50 0.65 -2.40 0.65 -7.15 l0 -6.45 -1.30 0 c-4.70 0 -17.25 2.65 -27.20 5.80 -29.10 9.15 -49.95 19.65 -75.50 38 -16.80 12.10 -49.10 43.15 -63.65 61.20 -2.70 3.40 -13.45 18.35 -14.30 19.90 -0.95 1.80 -0.25 1.25 1.95 -1.50z m-53.45 -3.30 c-4.15 -6.20 -13.25 -17.80 -19.10 -24.35 -10.60 -11.90 -27.75 -28.35 -41.45 -39.70 -16.45 -13.65 -39.75 -28.75 -57.25 -37.10 -11 -5.25 -29 -11.90 -40.70 -15 -6.80 -1.85 -20.10 -4.45 -20.70 -4.10 -0.20 0.15 -0.35 3.20 -0.30 6.75 0.10 5.90 0.20 6.55 1.05 6.80 0.85 0.20 0.90 0.55 0.60 4.05 -0.20 2.35 -0.60 3.95 -1 4.20 -1 0.60 -1 14.85 0 14.85 2.60 0 17.35 1.75 23.55 2.80 19.85 3.35 35.30 7.55 56.25 15.30 36.30 13.50 75.50 39.65 97.35 65.05 2.30 2.65 4.30 4.85 4.45 4.85 0.10 0 -1.10 -2 -2.75 -4.40z"/>
  <path d="M245.05 373.45 c-4.30 -0.65 -11.15 -3.30 -14.65 -5.65 -3.45 -2.25 -8.95 -8.10 -10.95 -11.55 -2.90 -4.95 -3.55 -8.10 -3.80 -18.25 l-0.25 -9.25 -2.15 -3.25 c-1.20 -1.80 -2.85 -4.60 -3.60 -6.25 l-1.40 -3 0 -11.55 0 -11.55 -2.70 -1.45 c-25.40 -13.30 -43.70 -41.50 -47.10 -72.65 -1.20 -11.25 0.10 -25.70 3.30 -36.85 6.80 -23.45 24.50 -44.75 46.35 -55.75 14.45 -7.25 28.30 -10.55 44.65 -10.55 12.25 0 20.90 1.45 32.20 5.45 4.85 1.75 15.10 7 20.50 10.55 20.45 13.45 34.55 34.55 39.90 59.75 1.20 5.50 1.30 7.20 1.30 17.10 0.05 12.15 -0.80 18.60 -3.70 28.35 -6.75 22.75 -23.60 43.75 -42.85 53.55 l-5.20 2.60 0.20 11.75 0.15 11.75 -1.40 2.85 c-0.75 1.55 -2.40 3.95 -3.60 5.25 l-2.15 2.45 -0.20 10.20 c-0.20 9.90 -0.25 10.35 -1.60 13.65 -4.25 10.20 -12.65 17.85 -23.20 21.20 -4.45 1.40 -12.80 1.90 -18.05 1.10z m13.20 -20 c3.40 -1.30 7.20 -4.25 8.85 -7 1.30 -2.05 2.85 -8.15 2.25 -8.75 -0.10 -0.15 -2.10 0.15 -4.40 0.65 -3.20 0.65 -6.40 0.90 -13.20 0.85 -8.55 0 -11.55 -0.35 -16.95 -2 -0.90 -0.30 -0.95 -0.05 -0.70 3.20 0.40 5.65 2.90 9.50 7.65 12 5.15 2.65 11.15 3.05 16.50 1.05z m2.75 -33.95 c8.45 -1.75 15 -5.85 15.65 -9.85 0.40 -2.40 0.45 -7.40 0.05 -7.80 -0.15 -0.15 -1.20 0.05 -2.30 0.45 -1.10 0.35 -5.30 1.15 -9.30 1.75 -6.15 0.90 -8.85 1 -16.60 0.80 -8.85 -0.25 -13.30 -0.90 -20.85 -3.15 -1.15 -0.30 -1.15 -0.25 -1.15 4 0 6.45 1.10 8 7.75 11.10 7.80 3.60 17.60 4.60 26.75 2.70z m-18.50 -46.75 l0 -11.30 -11.35 -11.60 c-15.90 -16.20 -31.85 -33.30 -32.85 -35.20 -2.35 -4.55 1 -10.85 6.60 -12.45 4.85 -1.40 7.50 -0.15 13.65 6.55 2 2.20 8.15 8.80 13.65 14.65 l10.05 10.65 0.25 -34.15 0.25 -34.15 1.10 -1.55 c1.45 -2.05 4.25 -3.35 7.65 -3.55 3.75 -0.25 7.40 1.80 8.95 5 1.05 2.15 1.05 2.60 1.05 33.65 0 17.30 0 32 0 32.70 0 1.15 0.15 1.10 2.30 -1 1.25 -1.25 7.65 -7.90 14.25 -14.80 10 -10.55 12.35 -12.75 14.50 -13.65 2.85 -1.25 5.35 -1.10 8.45 0.45 4.75 2.45 6.90 8.10 4.40 11.65 -1.40 2.05 -14.15 15.50 -30.75 32.50 l-13.15 13.45 0 11.45 0 11.45 1.20 0 c4.85 0 15.10 -3.05 22.55 -6.75 17.90 -8.90 31.50 -24.60 37.95 -43.80 2.90 -8.75 3.55 -12.95 3.50 -23.70 0 -10.65 -0.50 -14.50 -2.95 -22.05 -3.85 -11.80 -9.50 -21.05 -18.20 -29.70 -9 -9 -17.30 -14.05 -29.45 -18.05 -16.25 -5.30 -32.35 -5.25 -48.75 0.10 -11.55 3.75 -24.15 12.15 -31.75 21.05 -7.75 9.10 -13.85 21.65 -16.45 33.90 -1.30 6.10 -1.25 21.75 0.05 28.75 1.95 10.55 6.70 21.60 13.20 30.75 7.90 11.20 20.45 21 33.55 26.20 3.25 1.25 13.05 3.75 14.95 3.80 l1.60 0 0 -11.25z"/>
  <path d="M170.25 324.10 c-0.80 -0.50 -5.65 -4.90 -10.75 -9.70 -18.35 -17.35 -28.20 -30.75 -35.75 -48.90 -4.35 -10.35 -7.65 -23.45 -8.80 -35 -0.70 -6.95 -0.30 -24.35 0.75 -31 3.05 -19.40 10.95 -38.40 22.70 -54.75 3.90 -5.40 7.90 -9.90 9.85 -11.05 5.55 -3.20 12.70 0.85 12.75 7.20 0 2.80 -0.85 4.40 -5.10 9.25 -6.80 7.95 -10.90 14.55 -15.35 24.95 -12.90 30.15 -12.30 61.65 1.75 90.15 7.05 14.35 17.95 27.80 31.20 38.50 8.65 7 9.50 8.10 9.50 12.55 0 2.80 -1.45 5.75 -3.60 7.25 -2.25 1.60 -7.05 1.90 -9.15 0.55z"/>
  <path d="M325.75 324.40 c-4.05 -1.45 -7 -6.90 -5.80 -10.85 0.80 -2.75 2.20 -4.25 8.95 -9.75 6.50 -5.25 15.60 -14.20 19.85 -19.55 9.50 -11.90 16.75 -26.10 20.20 -39.60 4.15 -16.10 4.10 -36.70 0 -52.85 -3.95 -15.50 -11.05 -29.55 -20.90 -41.30 -4.50 -5.35 -5.75 -7.90 -5.35 -10.70 0.70 -4.20 4.70 -7.80 8.65 -7.80 6.20 0 21.55 21.25 28.90 40 2.65 6.75 5.95 18.70 7.25 26 1.35 7.85 1.95 26.20 1.05 33.80 -1.75 14.95 -6.20 29.25 -13.55 43.65 -7.15 14.05 -17.45 26.60 -34.25 41.80 -3.55 3.20 -7.05 6.15 -7.75 6.50 -1.85 0.95 -5.50 1.30 -7.25 0.65z"/>
  <path d="M85.70 280.30 c-2.10 -0.90 -4.50 -4 -5.75 -7.30 -2.35 -6.25 -5.60 -21.10 -7 -32.25 -0.75 -6 -0.75 -25.30 0 -31.25 1.85 -14.60 3.45 -22.40 7.10 -34.45 5.20 -17.35 14.95 -36.45 26 -51.05 26.80 -35.45 67.05 -59.80 112.90 -68.30 10.75 -1.95 19.55 -2.70 32.55 -2.70 17.65 0 31.05 1.60 46.50 5.50 18.60 4.65 32.60 10.55 49.25 20.75 14.90 9.05 22.50 15 33.75 26.25 20 19.95 32.60 40.50 41.60 67.75 5.20 15.80 7.30 26.55 8.45 43.75 0.80 12.75 0 24.85 -2.55 38.25 -1.90 9.75 -5.30 20 -7.60 22.80 -2.25 2.75 -7.30 3.80 -10.40 2.20 -1.80 -0.95 -3.70 -3.40 -4.50 -5.90 -0.55 -1.70 -0.40 -2.35 1.70 -8.50 8.25 -24.05 8.35 -55.65 0.25 -82.90 -3.15 -10.60 -9.65 -25.70 -14.50 -33.80 -11.30 -18.80 -24.60 -33.40 -41.95 -46.20 -21.60 -15.90 -47.05 -26.55 -72.50 -30.40 -30.95 -4.65 -61.30 -1.40 -88.75 9.50 -22.45 8.95 -40.50 20.75 -56.25 36.80 -11.50 11.65 -18.90 21.30 -25.70 33.50 -7.80 14 -13.95 32 -16.80 49.10 -3.55 21.35 -2.10 43.85 4.20 64.10 2.35 7.60 2.40 8.30 0.30 11.70 -2.10 3.40 -6.45 4.70 -10.30 3.05z"/>
  <path d="M112.20 484.05 c-4.15 -1.90 -7.15 -7.15 -6.55 -11.60 0.75 -5.80 4.85 -9.55 10.85 -9.85 5.20 -0.30 8.75 2 11.05 7.10 2.35 5.40 -0.60 12.20 -6.40 14.65 -2.30 0.95 -6.55 0.80 -8.95 -0.30z"/>
  <path d="M380.60 483.95 c-5.15 -2.55 -7.60 -9.80 -5.15 -15.20 1.85 -4.05 7.30 -7.10 11.55 -6.45 3.20 0.50 6.55 2.70 8.20 5.35 2.75 4.45 2.20 9.40 -1.50 13.80 -2.95 3.50 -8.80 4.60 -13.10 2.50z"/>
 </g>
 <g fill="#969796">
  <path d="M199.40 442.30 c-1.65 -0.40 -1.90 -0.70 -1.90 -1.90 0 -1.80 0.80 -1.75 2.95 0.15 1.95 1.80 1.55 2.45 -1.05 1.75z"/>
  <path d="M305 439.75 c0 -0.95 0.20 -1.75 0.45 -1.75 0.25 0 0.80 -0.30 1.15 -0.65 0.80 -0.85 17.15 -10.60 25.20 -15 14.50 -8.05 39.95 -18.90 62.20 -26.55 21.35 -7.35 38.80 -11.65 56.25 -13.75 2.50 -0.35 5.20 -0.65 6.10 -0.75 l1.55 -0.20 -0.05 2.40 c0 1.35 -0.20 2.35 -0.40 2.20 -0.90 -0.55 -19.55 4.05 -33.70 8.30 -20.60 6.20 -37.90 12.20 -52.75 18.25 -7.50 3.05 -12.40 4.75 -13.60 4.75 -1.25 0 -2.05 0.30 -2.55 1 -0.80 1.15 -3.80 2.50 -5.45 2.50 -0.65 0 -1.45 0.45 -1.80 1 -0.35 0.55 -1.10 1 -1.70 1 -0.55 0 -1.85 0.60 -2.80 1.30 -0.95 0.75 -3.50 2.10 -5.70 3 -2.20 0.90 -4.55 2 -5.20 2.45 -0.65 0.40 -1.50 0.75 -1.95 0.75 -0.40 0 -0.75 0.20 -0.75 0.40 0 0.25 -4 2.40 -8.85 4.80 -4.90 2.45 -9.70 4.85 -10.65 5.35 -0.95 0.55 -2.50 0.95 -3.35 0.95 -1.55 0 -1.65 -0.10 -1.65 -1.75z"/>
  <path d="M152.65 418.05 c-0.15 -0.65 -0.85 -1.10 -2.20 -1.30 -1.05 -0.20 -1.95 -0.55 -1.95 -0.80 0 -0.25 -0.35 -0.45 -0.75 -0.45 -0.40 0 -0.75 0.25 -0.75 0.50 0 0.30 -0.80 0.50 -1.75 0.50 -1.60 0 -1.75 -0.10 -1.75 -1.45 0 -2.65 0.40 -3.05 3 -3.05 1.65 0 3.55 0.55 6.20 1.75 3.70 1.65 3.80 1.80 3.80 3.50 0 1.70 -0.05 1.75 -1.80 1.75 -1.35 0 -1.85 -0.25 -2.05 -0.95z"/>
  <path d="M135.50 413 c-1.25 -0.20 -6.50 -2.10 -11.70 -4.25 -15.55 -6.30 -43.45 -15.30 -59.05 -19 -7.55 -1.80 -17.15 -3.75 -18.45 -3.75 -0.95 0 -1.05 -0.30 -1.05 -2.95 0 -1.65 0.10 -2.75 0.25 -2.55 0.15 0.25 2.15 0.70 4.50 1 26.65 3.60 56.65 12.10 82.75 23.35 4.10 1.80 8.35 3.60 9.40 4 2.20 0.95 2.60 2.65 0.60 2.65 -0.90 0 -1.25 0.25 -1.25 1 0 0.85 -0.30 1 -1.85 0.95 -1.05 -0.05 -2.90 -0.25 -4.15 -0.45z"/>
  <path d="M389.85 353.15 c-0.20 -0.15 -0.35 -1.20 -0.35 -2.25 l0 -1.90 4.40 -2.05 c21.65 -10.05 42.15 -16.90 57.75 -19.25 3.10 -0.50 5.75 -1.10 5.95 -1.40 0.20 -0.30 0.40 1.30 0.40 3.60 0 4.80 0.20 4.60 -6 5.55 -12 1.90 -24.85 5.60 -39.25 11.30 -12.50 4.95 -17.90 6.75 -20.25 6.75 -1.30 0 -2.50 -0.15 -2.65 -0.35z"/>
  <path d="M68 339.50 c-9.60 -2.80 -20 -5.10 -21.65 -4.85 l-1.40 0.20 0.10 -4.35 0.15 -4.35 3.25 0.65 c12.35 2.35 23.25 5.45 35.55 10 5.70 2.15 6.50 2.55 6.50 3.55 0 1 -0.25 1.15 -2 1.15 -1.10 0 -2 -0.20 -2 -0.45 0 -0.60 -3.05 -1 -4.25 -0.55 -0.60 0.25 -2.50 0.50 -4.25 0.65 -2.75 0.25 -4.25 0 -10 -1.65z"/>
 </g>
 <g fill="#9fa09d">
  <path d="M298 444.10 c0 -1 5.30 -5.10 10.90 -8.40 l3.85 -2.30 -1.70 1.75 c-1 1.10 -1.50 2 -1.30 2.40 0.25 0.35 0.20 0.50 -0.10 0.30 -0.25 -0.15 -0.85 0.15 -1.30 0.70 -1.05 1.20 -0.55 1.20 1.45 0 0.85 -0.50 2.75 -1.30 4.30 -1.75 1.50 -0.40 3.30 -1.20 3.95 -1.70 0.65 -0.55 2.45 -1.55 3.95 -2.30 1.50 -0.75 2.85 -1.55 3 -1.70 0.15 -0.20 0.85 -0.65 1.60 -1.05 0.75 -0.40 1.25 -0.90 1.10 -1.15 -0.15 -0.20 0.15 -0.40 0.65 -0.40 0.50 0 2.45 -0.80 4.35 -1.75 1.85 -0.95 3.70 -1.75 4.05 -1.75 0.95 0 3.70 -1.50 5.10 -2.80 0.70 -0.65 1.80 -1.20 2.45 -1.20 0.65 0 1.45 -0.45 1.80 -1 0.35 -0.55 1.05 -1 1.50 -1 0.50 0 0.90 -0.20 0.90 -0.50 0 -0.25 0.25 -0.50 0.55 -0.50 0.25 0 0.40 0.20 0.25 0.45 -0.20 0.25 0.20 0.35 0.80 0.15 0.60 -0.15 0.85 -0.35 0.50 -0.50 -1.20 -0.40 -0.55 -1.20 0.85 -1 1.70 0.25 2.55 -0.80 2.55 -3.15 0 -1.30 -0.15 -1.45 -1 -1.20 -1.85 0.60 -1 -0.60 1 -1.40 1.95 -0.75 2 -0.75 1.30 0.25 -0.45 0.60 -0.55 1.45 -0.35 2.30 0.50 1.80 2.95 2.05 6.35 0.60 1.35 -0.60 2.80 -1.15 3.20 -1.25 0.40 -0.10 3.45 -1.35 6.75 -2.75 3.30 -1.45 6.55 -2.80 7.25 -3 0.70 -0.25 3.50 -1.25 6.25 -2.25 2.75 -1 6.80 -2.40 9 -3.10 2.20 -0.70 4.70 -1.55 5.60 -1.95 0.85 -0.40 1.95 -0.70 2.50 -0.70 0.50 0 1.45 -0.30 2.20 -0.65 0.70 -0.40 1.65 -0.65 2.10 -0.55 0.45 0.05 0.85 -0.10 0.85 -0.35 0 -0.25 0.45 -0.45 0.95 -0.45 0.55 0 1.15 -0.25 1.35 -0.55 0.15 -0.30 0.75 -0.45 1.25 -0.30 0.50 0.15 0.95 0.10 1.05 -0.15 0.20 -0.50 11.15 -4 12.55 -4 0.65 0 1.35 -0.20 1.65 -0.50 0.65 -0.65 10.10 -3.10 10.65 -2.75 0.25 0.15 0.60 0.05 0.80 -0.25 0.45 -0.70 1.25 -0.60 1.25 0.15 0 0.45 -1.60 1.10 -4.35 1.85 -15.40 4.05 -45.10 14 -61.90 20.75 -16.85 6.80 -24.60 10.25 -41 18.25 -6.85 3.35 -14.15 6.90 -16.15 7.80 -2 0.95 -3.55 1.90 -3.40 2.15 0.15 0.20 -2.35 1.25 -5.60 2.25 -3.20 1.05 -6.35 2.10 -6.95 2.35 -0.95 0.35 -1.15 0.25 -1.15 -0.45z"/>
  <path d="M200.75 442.75 c-1.10 -0.35 -3.85 -1.15 -6.10 -1.75 -2.50 -0.70 -4 -1.35 -3.85 -1.70 0.10 -0.30 -0.50 -0.85 -1.40 -1.20 -0.90 -0.40 -2.90 -1.25 -4.40 -1.95 -21.40 -9.95 -53.90 -24.45 -61.35 -27.45 -3.40 -1.35 -6.15 -2.60 -6.15 -2.80 0 -0.60 1.75 -0.45 2.40 0.20 0.35 0.35 0.60 0.45 0.60 0.25 0 -0.40 4.40 1.20 7.15 2.60 1.05 0.55 2.25 0.85 2.60 0.75 0.35 -0.15 0.80 -0.05 1 0.25 0.60 1.05 2.25 0.60 2.25 -0.55 0 -2.25 0.70 -2.60 2.90 -1.45 1.15 0.60 2.70 1.10 3.45 1.10 1.20 0.10 1.25 0.10 0.30 0.30 -0.80 0.15 -1.15 0.55 -1.15 1.45 0 0.65 0.25 1.20 0.50 1.20 0.30 0 0.50 -0.45 0.50 -1 0 -0.75 0.35 -1 1.40 -1 1.05 0 1.20 -0.10 0.60 -0.50 -2.05 -1.35 1.10 -0.15 7.30 2.70 26.20 12 52.45 26.90 50.10 28.35 -0.35 0.25 -0.40 0.45 -0.15 0.50 0.30 0.05 0.75 0.10 1 0.20 0.30 0.05 0.75 0.15 1.10 0.15 0.35 0.05 0.85 0.55 1.15 1.10 0.30 0.55 0.45 1 0.40 0.95 -0.10 0 -1.05 -0.30 -2.15 -0.70z m-47.45 -27.85 c0.20 -0.30 0.15 -0.40 -0.20 -0.20 -0.30 0.15 -0.65 0.10 -0.85 -0.20 -0.40 -0.65 -2.25 -0.65 -2.25 -0.05 0 0.25 0.50 0.60 1.15 0.70 0.60 0.10 1.25 0.25 1.45 0.30 0.20 0 0.50 -0.20 0.70 -0.55z m-4.90 -1.25 c-0.50 -0.10 -1.40 -0.10 -2 0 -0.65 0.10 -0.25 0.20 0.85 0.20 1.10 0.05 1.60 -0.05 1.15 -0.20z m-9.90 -3.45 c0 -0.40 -0.30 -0.70 -0.70 -0.70 -0.40 0 -0.80 -0.20 -0.90 -0.45 -0.25 -0.70 -2.90 -1.25 -2.90 -0.60 0 0.30 0.25 0.55 0.50 0.55 0.75 0 0.60 1.50 -0.10 1.55 -0.35 0 -0.25 0.20 0.30 0.40 1.35 0.55 3.80 0.05 3.80 -0.75z"/>
  <path d="M323.05 427.35 c0.10 -0.10 0.90 -0.55 1.70 -1.05 l1.50 -0.85 -1.20 1 c-0.65 0.60 -1.40 1.05 -1.70 1.05 -0.30 0 -0.40 -0.05 -0.30 -0.15z"/>
  <path d="M341.90 419.20 c0.25 -1.25 0.15 -1.30 -1.20 -1 -1.70 0.45 -1.55 0.25 0.60 -0.85 l1.60 -0.80 -0.10 1.95 c0 1.10 -0.30 2 -0.60 2 -0.35 0 -0.45 -0.55 -0.30 -1.30z"/>
  <path d="M348.40 415.35 c-0.20 -1 -0.05 -1.20 0.80 -1 0.75 0.15 0.85 0.10 0.40 -0.20 -0.45 -0.35 -0.30 -0.60 0.65 -1.05 1.35 -0.60 1.55 -0.45 0.75 0.55 -0.30 0.35 -0.95 1.10 -1.45 1.75 l-0.95 1.10 -0.20 -1.15z"/>
  <path d="M115.90 405.65 c-1.20 -0.30 -1.15 -1.15 0.10 -1.15 0.55 0 1 0.35 1 0.75 0 0.40 -0.05 0.70 -0.10 0.70 -0.10 -0.05 -0.55 -0.15 -1 -0.30z"/>
  <path d="M112.40 404.35 c-0.80 -0.30 -1.40 -0.70 -1.40 -0.95 0 -0.60 1.90 -0.50 2.25 0.10 0.20 0.30 0.55 0.40 0.80 0.25 0.25 -0.20 0.45 0.05 0.45 0.45 0 0.90 -0.20 0.90 -2.10 0.15z"/>
  <path d="M108.90 403.15 c-0.95 -0.25 -1.25 -1.15 -0.45 -1.15 0.85 0 2.05 0.60 2.05 1.05 0 0.45 -0.20 0.50 -1.60 0.10z"/>
  <path d="M99.15 399.85 c-2.90 -0.95 -4.10 -1.85 -2.45 -1.85 1.65 0 6.30 1.90 6.30 2.60 0 0.55 -0.20 0.50 -3.85 -0.75z"/>
  <path d="M89.80 396.80 c-2.35 -0.75 -3.20 -2.05 -0.95 -1.50 1.90 0.45 3.15 1.15 3.15 1.70 0 0.30 -0.05 0.50 -0.10 0.45 -0.10 -0.05 -1.05 -0.35 -2.10 -0.65z"/>
  <path d="M83.90 395.15 c-0.95 -0.25 -1.25 -1.15 -0.45 -1.15 0.85 0 2.05 0.60 2.05 1.05 0 0.45 -0.20 0.50 -1.60 0.10z"/>
  <path d="M80.65 394.10 c-0.65 -0.10 -1.15 -0.40 -1.15 -0.65 0 -0.65 1.85 -0.55 2.25 0.10 0.45 0.70 0.25 0.80 -1.10 0.55z"/>
  <path d="M75.15 392.50 c-0.65 -0.25 -1.15 -0.70 -1.15 -0.95 0 -0.65 2.65 0.10 2.90 0.85 0.20 0.70 -0.20 0.70 -1.75 0.10z"/>
  <path d="M70.90 391.35 c-2.85 -0.80 -2.50 -1.85 0.35 -1.20 1.30 0.30 2.25 0.80 2.25 1.20 0 0.75 0 0.75 -2.60 0z"/>
  <path d="M439 389.10 c0 -0.85 0.85 -1.20 5.90 -2.40 4.40 -1 6.10 -1.10 6.10 -0.25 0 0.15 -2.20 0.85 -4.85 1.45 -2.70 0.60 -5.40 1.25 -6 1.40 -0.65 0.20 -1.15 0.10 -1.15 -0.20z"/>
  <path d="M451.50 385.75 c0 -0.60 0.30 -0.80 0.95 -0.60 0.50 0.10 1.25 0.05 1.65 -0.20 0.65 -0.35 2.35 0.25 1.90 0.70 -0.15 0.15 -1.20 0.40 -2.35 0.60 -1.85 0.30 -2.15 0.20 -2.15 -0.50z"/>
  <path d="M355.30 369.60 c-0.40 -0.35 2.15 -2.45 3.85 -3.25 0.75 -0.30 1.35 -0.75 1.35 -0.95 0 -0.25 0.25 -0.40 0.55 -0.40 0.25 0 2.90 -1.50 5.85 -3.30 2.95 -1.85 5.80 -3.60 6.35 -3.95 6.45 -3.95 30.75 -15.85 30.75 -15 0 0.45 -5.50 3.25 -6.45 3.25 -0.60 0 -0.95 0.20 -0.80 0.50 0.20 0.30 -0.05 0.35 -0.55 0.15 -0.65 -0.25 -0.75 -0.15 -0.45 0.35 0.25 0.40 0.20 0.55 -0.15 0.30 -0.25 -0.15 -0.60 0 -0.70 0.30 -0.15 0.35 -0.65 0.65 -1.15 0.65 -1.10 0 -3 2.45 -2.55 3.20 0.20 0.30 0.95 0.55 1.70 0.55 1.10 0 1.20 -0.10 0.60 -0.50 -0.55 -0.40 -0.40 -0.45 0.65 -0.20 0.75 0.15 1.35 0.10 1.35 -0.15 0 -0.25 0.50 -0.50 1.10 -0.50 0.65 -0.05 1.20 -0.35 1.30 -0.65 0.10 -0.25 0.35 -0.40 0.55 -0.30 0.40 0.25 6.20 -1.40 7.25 -2.05 0.30 -0.20 0.80 -0.40 1.10 -0.45 0.30 -0.05 1.35 -0.45 2.25 -0.85 5.95 -2.75 30.15 -10.35 30.80 -9.65 0.15 0.15 0.70 0.05 1.25 -0.25 1.25 -0.70 5.90 -1.10 5.90 -0.55 0 0.25 -1.85 0.80 -4.10 1.30 -12.35 2.60 -23.65 6.65 -49.90 17.65 -7.55 3.20 -15.10 6.30 -16.75 6.90 -7.20 2.65 -13.20 4.95 -16.80 6.50 -2.15 0.90 -4 1.50 -4.15 1.35z"/>
  <path d="M142.50 367.85 c-1.25 -0.55 -2.35 -1.05 -2.50 -1.10 -0.15 0 -1 -0.25 -1.85 -0.45 -0.90 -0.20 -1.65 -0.60 -1.65 -0.85 0 -0.30 -0.15 -0.40 -0.40 -0.25 -0.20 0.10 -1.15 -0.15 -2.10 -0.55 -0.95 -0.45 -2.15 -0.90 -2.65 -1 -0.50 -0.05 -1.40 -0.40 -2 -0.75 -0.60 -0.35 -1.50 -0.65 -2 -0.75 -1 -0.15 -14.05 -5.45 -26.35 -10.65 -11.15 -4.75 -20.20 -8.20 -26.55 -10.20 -9.50 -2.95 -23.50 -6.35 -26.50 -6.45 -2.40 -0.10 -2.75 -0.25 -2.55 -0.95 0.30 -1.25 1.75 -1.15 9.35 0.65 9.10 2.10 8.55 1.95 12.25 3.05 3.20 0.95 7.35 1.65 8.65 1.50 0.50 -0.05 0.80 0.10 0.65 0.30 -0.15 0.25 0.90 0.25 2.30 0.05 1.40 -0.25 2.75 -0.70 2.95 -1 0.20 -0.35 0.95 -0.50 1.85 -0.30 0.95 0.20 1.60 0.10 1.70 -0.25 0.15 -0.40 0.60 -0.40 1.65 0 0.85 0.30 1.20 0.55 0.85 0.55 -0.50 0.05 -0.50 0.20 0.10 0.80 0.85 0.85 1.50 1 1.05 0.25 -0.80 -1.25 2.85 0 12.20 4.20 10.15 4.60 15.95 7.65 33.55 17.70 6.65 3.85 11.20 6.90 10.65 7.25 -0.20 0.10 -1.40 -0.25 -2.65 -0.80z"/>
  <path d="M78.50 335.20 l-1.25 -0.75 1.25 0.35 c1.40 0.35 1.75 0.60 1.45 0.90 -0.10 0.10 -0.75 -0.10 -1.45 -0.50z"/>
  <path d="M447.50 335.50 c0 -0.65 1.50 -0.65 2.50 0 0.55 0.35 0.35 0.50 -0.85 0.50 -0.90 0 -1.65 -0.20 -1.65 -0.50z"/>
  <path d="M451 335.05 c0 -0.25 0.45 -0.55 1 -0.70 0.65 -0.15 1 0 1 0.45 0 0.40 -0.45 0.70 -1 0.70 -0.55 0 -1 -0.20 -1 -0.45z"/>
  <path d="M453.50 334.60 c0 -0.70 0.55 -1.05 1.30 -0.75 1.05 0.40 0.85 1.15 -0.30 1.15 -0.55 0 -1 -0.20 -1 -0.40z"/>
  <path d="M72.75 333.25 c-1.95 -0.85 -1.05 -0.90 1.25 0 0.95 0.35 1.40 0.70 1 0.70 -0.40 0 -1.40 -0.30 -2.25 -0.70z"/>
  <path d="M60.25 329.75 c-2.70 -0.85 -1.65 -0.90 1.50 -0.05 1.40 0.40 2.05 0.70 1.50 0.70 -0.55 0 -1.90 -0.25 -3 -0.65z"/>
  <path d="M47.25 327.15 c-0.80 -0.15 -1.70 -0.40 -1.90 -0.65 -0.40 -0.35 4.15 0.25 5.40 0.75 0.65 0.20 -1.55 0.15 -3.50 -0.10z"/>
 </g>
</svg>