<?xml version="1.0" encoding="utf-8"?>
<svg version="1.2" baseProfile="tiny-ps" xmlns="http://www.w3.org/2000/svg" width="32" height="32" viewBox="0 0 500 500" preserveAspectRatio="xMidYMid meet">
 <g fill="#5c5c5f">
  <path d="M297.25 445.50 c-0.15 -0.25 0.05 -0.50 0.45 -0.50 0.45 0 0.65 -0.30 0.50 -0.70 -0.30 -0.85 3.30 -3.85 8.25 -6.85 1.80 -1.10 3.80 -2.35 4.45 -2.80 1 -0.70 1.10 -0.70 1.10 0.05 0 0.85 2.30 1.15 2.60 0.35 0.25 -0.75 6.40 -1.30 6.40 -0.60 0 0.30 -2.10 1.55 -4.70 2.80 -2.60 1.20 -4.85 2.45 -5.05 2.75 -0.45 0.70 0.30 0.65 2.40 -0.25 0.95 -0.40 2.45 -0.85 3.30 -1 1.25 -0.20 1.55 -0.10 1.55 0.65 0 1 -2.45 2.10 -4.55 2.10 -0.70 0 -1.45 0.20 -1.70 0.45 -0.80 0.70 -11.70 4.05 -13.30 4.05 -0.75 0 -1.55 -0.20 -1.70 -0.50z"/>
  <path d="M197.50 443.70 c-7.20 -1.90 -9.50 -2.85 -9.50 -3.80 0 -0.75 0.30 -0.85 1.65 -0.65 2.05 0.30 -4.30 -3 -15.40 -8 -4.40 -2 -10 -4.60 -12.50 -5.75 -17.65 -8.25 -42.90 -19 -52.50 -22.30 -21.10 -7.30 -38.70 -12.35 -55 -15.75 -8.05 -1.65 -8.75 -1.70 -8.75 -0.70 0 0.40 -0.35 0.75 -0.75 0.75 -0.50 0 -0.75 -0.50 -0.75 -1.60 0 -0.90 -0.15 -2.85 -0.30 -4.25 -0.30 -2.30 -0.20 -2.65 0.55 -2.65 0.45 0 0.95 0.45 1.10 1 0.20 0.65 0.70 1 1.45 1 1.40 0 2.20 1.40 1.15 2 -0.75 0.50 -0.70 0.50 6.55 2 13.90 2.80 30.05 7.15 30.40 8.05 0.10 0.25 0.80 0.45 1.60 0.45 1.70 0 14.20 3.95 14.40 4.55 0.10 0.25 0.95 0.45 1.90 0.45 0.95 0 1.70 0.25 1.70 0.50 0 0.30 0.40 0.50 0.85 0.50 1.35 0 12.15 3.60 12.15 4.10 0 0.20 0.55 0.40 1.25 0.40 0.80 0 1.25 0.30 1.25 0.75 0 0.50 0.55 0.75 1.75 0.75 1 0 3.25 0.70 5.10 1.50 1.80 0.85 3.70 1.50 4.20 1.50 0.55 0 0.95 0.25 0.95 0.50 0 0.30 0.50 0.50 1.15 0.50 0.60 0 1.55 0.30 2.10 0.65 0.55 0.40 2.15 0.95 3.50 1.30 2.90 0.75 6.55 2.30 6.95 3 0.15 0.25 1.35 0.95 2.70 1.55 1.30 0.55 3.25 1.45 4.35 2 1.10 0.50 2.50 1.05 3.15 1.25 0.60 0.15 1.10 0.55 1.10 0.80 0 0.25 0.35 0.45 0.75 0.45 0.40 0 0.75 0.20 0.75 0.40 0 0.45 3.65 1.55 6.65 1.95 1.05 0.15 1.85 0.05 1.85 -0.25 0 -0.25 -1.05 -0.65 -2.30 -0.85 -2.50 -0.35 -5.70 -1.70 -5.70 -2.35 0 -0.20 -0.30 -0.40 -0.65 -0.40 -0.85 0 -3.90 -1.50 -4.70 -2.30 -0.35 -0.35 -0.90 -0.70 -1.20 -0.80 -0.30 -0.10 -0.45 -0.70 -0.35 -1.30 l0.15 -1.10 2.25 1.05 c22.20 10.65 38.50 19.80 45.40 25.65 1.20 1 2.40 1.80 2.65 1.80 0.25 0 0.45 0.35 0.45 0.75 0 0.40 0.25 0.75 0.50 0.75 0.30 0 0.50 0.25 0.50 0.50 0 0.70 -3.25 0.55 -6.50 -0.30z"/>
  <path d="M178.50 437 c0 -1.10 1 -1.30 2.55 -0.50 1.50 0.80 1.15 1.50 -0.80 1.50 -1.40 0 -1.75 -0.20 -1.75 -1z"/>
  <path d="M322.50 432.35 c0 -1.35 0.30 -1.80 1.65 -2.50 0.85 -0.45 1.95 -1.05 2.35 -1.30 0.40 -0.20 2.55 -1.25 4.75 -2.25 4.10 -1.90 7.65 -2.30 8.10 -0.95 0.15 0.40 -3 2.20 -8.10 4.65 -4.60 2.20 -8.45 4 -8.55 4 -0.10 0 -0.20 -0.75 -0.20 -1.65z"/>
  <path d="M316.50 431.65 c0 -0.55 2.15 -1.90 9.35 -5.95 2.60 -1.50 2.65 -1.50 2.65 0.05 0 0.90 -0.25 1.25 -1 1.25 -0.55 0 -1 0.25 -1 0.50 0 0.30 -0.35 0.50 -0.75 0.50 -0.40 0 -0.75 0.25 -0.75 0.50 0 0.30 -0.80 0.50 -1.75 0.50 -1.30 0 -1.75 0.20 -1.75 0.80 0 0.45 -0.40 1.15 -0.85 1.50 -0.95 0.70 -4.15 0.95 -4.15 0.35z"/>
  <path d="M341 423.75 c0 -0.90 0.25 -1.25 1 -1.25 0.65 0 1 -0.35 1 -0.95 0 -0.65 0.85 -1.35 2.90 -2.25 1.55 -0.75 4 -1.90 5.45 -2.60 1.40 -0.70 3.70 -1.35 5.10 -1.55 1.55 -0.15 2.55 -0.55 2.55 -0.90 0 -0.70 1.10 -1.25 2.55 -1.25 0.50 0 0.95 -0.20 0.95 -0.50 0 -0.25 0.55 -0.50 1.25 -0.50 0.70 0 1.25 -0.20 1.25 -0.50 0 -0.25 0.90 -0.65 2 -0.80 1.10 -0.20 2 -0.50 2 -0.75 0 -0.25 0.55 -0.45 1.25 -0.45 0.70 0 1.25 -0.20 1.25 -0.50 0 -0.25 0.55 -0.50 1.25 -0.50 0.70 0 1.25 -0.20 1.25 -0.50 0 -0.25 0.45 -0.50 1 -0.50 0.55 0 1 -0.20 1 -0.45 0 -0.25 0.50 -0.55 1.15 -0.70 0.60 -0.15 3.60 -1.20 6.60 -2.30 7.80 -2.85 12.20 -4.35 23.50 -7.95 12.10 -3.90 23.25 -7.10 24.80 -7.10 0.75 0 1.45 -0.20 1.55 -0.40 0.20 -0.55 8.40 -2.60 10.40 -2.60 0.80 0 1.50 -0.20 1.50 -0.50 0 -0.25 1 -0.50 2.20 -0.50 1.20 0 2.30 -0.25 2.40 -0.55 0.10 -0.30 1.70 -0.55 3.65 -0.60 2.90 -0.10 3.50 0.05 3.65 0.75 0.10 0.65 -0.45 0.95 -2.75 1.40 -17.20 3.30 -55.45 15.05 -77.90 23.85 -9.30 3.70 -24.30 10 -30.45 12.85 -2.70 1.25 -5 2.30 -5.10 2.30 -0.10 0 -0.20 -0.55 -0.20 -1.25z"/>
  <path d="M344 416.50 c0 -0.40 2.55 -2 3.25 -2 0.15 0 0.25 0.55 0.25 1.25 0 1.10 -0.20 1.25 -1.75 1.25 -0.95 0 -1.75 -0.20 -1.75 -0.50z"/>
  <path d="M348 414.55 c0 -0.45 1.95 -1.50 4.65 -2.50 1.25 -0.50 1.35 -0.45 1.35 0.65 0 0.90 -0.40 1.35 -1.55 1.75 -1.90 0.65 -4.45 0.70 -4.45 0.10z"/>
  <path d="M146.40 413.65 c-0.60 -0.15 -0.90 -0.70 -0.90 -1.65 0 -1.35 0.10 -1.45 1.25 -1 2.35 0.90 4.25 2 4.25 2.50 0 0.50 -2.95 0.60 -4.60 0.15z"/>
  <path d="M145.80 369.40 c-1.10 -0.55 -6.15 -2.60 -11.25 -4.50 -13.55 -5.05 -16 -6 -30.30 -12 -24.05 -10.10 -34.85 -13.70 -54.05 -17.90 l-4.30 -0.95 -0.55 1.50 c-1.25 3.20 -2.35 1 -1.55 -3 0.30 -1.30 0.55 -1.55 1.75 -1.55 0.80 0 2.40 0.25 3.55 0.55 1.20 0.25 4.40 1.05 7.15 1.65 2.75 0.65 9 2.25 13.95 3.50 4.90 1.25 9.45 2.30 10.10 2.30 1.35 0 6.80 1.95 7.20 2.55 0.55 0.80 2.50 -0.15 2.50 -1.15 0 -0.85 0.20 -0.95 1.40 -0.65 2.05 0.50 16.05 6.95 23.10 10.65 12.95 6.80 33.50 18.95 33.50 19.85 0 0.35 0 0.35 -2.20 -0.85z"/>
  <path d="M354.25 370 c-0.15 -0.30 -0.10 -0.50 0.20 -0.50 0.25 0 3.40 -1.90 6.90 -4.20 12.60 -8.20 29 -16.95 43.40 -23.05 8.40 -3.60 7.75 -3.40 7.75 -2 0 1.10 -0.20 1.25 -1.75 1.25 -1.20 0 -1.75 0.25 -1.75 0.75 0 0.45 -0.45 0.75 -1.25 0.75 -0.70 0 -1.25 0.20 -1.25 0.50 0 0.50 -7.10 4.05 -9.40 4.75 -0.65 0.20 -1.10 0.45 -0.95 0.55 0.20 0.25 5 -1.40 13 -4.50 3.30 -1.25 6.20 -2.30 6.50 -2.30 0.35 0 1.80 -0.50 3.35 -1.05 1.50 -0.60 3.20 -1.25 3.75 -1.45 0.55 -0.25 2.80 -0.90 5 -1.50 2.20 -0.60 4.45 -1.25 5 -1.45 0.95 -0.40 11.20 -2.40 18.40 -3.60 1.85 -0.30 4.40 -0.40 5.60 -0.20 2.10 0.30 2.25 0.40 2.25 1.80 0 0.80 -0.20 1.45 -0.50 1.45 -0.25 0 -0.50 -0.20 -0.50 -0.45 0 -0.90 -1.40 -0.90 -6.65 -0.05 -16.55 2.85 -30.40 7.50 -61.60 20.75 -9.20 3.90 -10.15 4.25 -21.75 8.70 -4.25 1.65 -9.05 3.55 -10.60 4.25 -1.70 0.75 -3 1.05 -3.15 0.80z"/>
  <path d="M84.90 339.65 c-0.80 -0.10 -1.40 -0.45 -1.40 -0.70 0 -0.25 -0.55 -0.45 -1.25 -0.45 -1 0 -1.25 -0.25 -1.25 -1.25 0 -1.55 0.40 -1.55 4.70 0.15 5.20 2.05 4.80 3.10 -0.80 2.25z"/>
  <path d="M72.50 334.20 c0 -0.95 0.20 -1.20 0.90 -1 0.45 0.15 1.45 0.40 2.25 0.60 2.25 0.55 1.70 1.70 -0.90 1.70 -2.10 0 -2.25 -0.10 -2.25 -1.30z"/>
  <path d="M57.90 331.15 c-1.10 -0.25 -1.20 -2.15 -0.15 -2.15 0.35 0 1.85 0.25 3.25 0.55 3.35 0.70 3.45 1.95 0.15 1.90 -1.35 -0.05 -2.80 -0.15 -3.25 -0.30z"/>
  <path d="M47.75 329.15 c-4.20 -0.35 -4.25 -0.40 -4.25 -3.40 0 -2.10 0.15 -2.75 0.75 -2.75 0.40 0 0.80 0.35 0.80 0.75 0.05 0.40 0.15 1 0.20 1.25 0.05 0.30 0.15 0.70 0.20 0.95 0 0.20 1.75 0.70 3.80 1.05 3.10 0.55 3.75 0.80 3.75 1.55 0 1 -0.35 1.05 -5.25 0.60z"/>
 </g>
 <g fill="#686769">
  <path d="M196.85 442.50 c-0.20 -0.85 -0.10 -1 0.75 -0.70 0.90 0.25 1 0.15 0.75 -0.75 -0.30 -1.15 0 -1.30 1.10 -0.60 0.45 0.30 0.50 0.55 0.10 0.75 -0.90 0.55 -0.65 1.30 0.50 1.30 0.55 0 0.85 0.25 0.70 0.50 -0.15 0.30 -1.05 0.50 -1.95 0.50 -1.25 0 -1.75 -0.25 -1.95 -1z"/>
  <path d="M309 441.80 c0 -0.65 1.40 -1.30 2.90 -1.30 0.30 0 0.60 0.45 0.60 1 0 0.80 -0.35 1 -1.75 1 -1.15 0 -1.75 -0.25 -1.75 -0.70z"/>
  <path d="M273.50 439.45 c0 -2.20 0.85 -3.45 2.30 -3.45 1 0 1.25 0.20 1 0.85 -0.30 0.75 -0.20 0.75 0.70 -0.10 1 -0.90 1 -0.90 1 0.85 0 2.15 -1.25 3.40 -3.40 3.40 -1.45 0 -1.60 -0.15 -1.60 -1.55z"/>
  <path d="M306.60 440.10 c0.10 -0.20 1.05 -1.50 2.15 -2.90 2.05 -2.60 2.40 -2.85 18.75 -12.35 10.30 -6 24.65 -12.90 38.75 -18.65 13.65 -5.55 36.70 -13.80 42.50 -15.20 0.85 -0.20 4.20 -1.15 7.50 -2.15 11.15 -3.25 27.05 -6.35 37.05 -7.15 3.90 -0.30 4.25 -0.45 4.50 -1.50 0.20 -0.65 0.60 -1.20 1 -1.20 0.55 0 0.70 0.90 0.70 3.75 0 2.90 -0.15 3.75 -0.70 3.75 -0.40 0 -0.80 -0.20 -0.90 -0.45 -0.25 -0.65 -3.90 -1.20 -3.90 -0.55 0 0.35 -0.40 0.45 -1 0.25 -0.60 -0.20 -1.30 0 -1.85 0.50 -0.55 0.60 -1.25 0.75 -2.25 0.55 -1 -0.20 -1.75 -0.05 -2.25 0.50 -0.50 0.50 -1.25 0.65 -2.20 0.45 -0.85 -0.20 -1.45 -0.10 -1.45 0.15 0 0.30 -0.45 0.40 -1 0.25 -0.55 -0.15 -1 -0.05 -1 0.25 0 0.30 -0.45 0.40 -1 0.25 -0.55 -0.15 -1 -0.05 -1 0.25 0 0.30 -0.45 0.40 -1 0.25 -0.55 -0.15 -1 -0.05 -1 0.25 0 0.30 -0.40 0.40 -0.95 0.25 -0.55 -0.15 -1.05 0.10 -1.25 0.60 -0.20 0.65 -0.65 0.75 -1.80 0.50 -1 -0.20 -1.50 -0.15 -1.50 0.25 0 0.30 -0.20 0.40 -0.50 0.25 -0.50 -0.30 -7.55 1.60 -8 2.20 -0.15 0.15 -0.90 0.35 -1.75 0.40 -0.80 0.05 -1.55 0.35 -1.65 0.65 -0.10 0.25 -0.40 0.40 -0.65 0.20 -0.75 -0.45 -21.15 6.25 -39.75 13 -0.85 0.30 -1.45 0.85 -1.30 1.20 0.15 0.45 -0.15 0.55 -1.10 0.30 -1 -0.25 -1.30 -0.10 -1.30 0.50 0 0.60 -0.30 0.75 -1.25 0.50 -0.95 -0.25 -1.25 -0.10 -1.25 0.50 0 0.60 -0.30 0.75 -1.25 0.50 -0.95 -0.25 -1.25 -0.10 -1.25 0.55 0 0.60 -0.25 0.75 -0.80 0.55 -1.25 -0.50 -3.15 0.20 -2.85 1 0.20 0.55 -0.10 0.65 -1.30 0.40 -1.35 -0.30 -1.50 -0.20 -1.25 0.55 0.30 0.70 0.15 0.80 -0.70 0.50 -1.45 -0.40 -3.10 0.15 -3.10 1.05 0 0.40 -0.15 0.70 -0.35 0.75 -0.25 0 -1.35 0.10 -2.50 0.20 -1.15 0.10 -3.30 0.70 -4.75 1.40 -1.45 0.70 -3.95 1.90 -5.55 2.65 -1.60 0.75 -2.80 1.60 -2.70 1.90 0.25 0.80 -6 3.90 -7.15 3.55 -0.75 -0.25 -6.35 2 -9.50 3.80 -0.40 0.25 -1.50 0.85 -2.40 1.30 -0.90 0.45 -1.55 1.10 -1.40 1.45 0.30 0.75 -5.50 3.40 -7.05 3.30 -0.70 -0.05 -1.15 0.20 -1.15 0.65 0 0.40 -0.30 0.60 -0.70 0.45 -0.80 -0.30 -6.80 1.75 -6.80 2.30 0 0.20 -0.45 0.50 -1.05 0.65 -0.55 0.15 -0.95 0.10 -0.85 -0.05z"/>
  <path d="M319 438.80 c0 -0.65 1.40 -1.30 2.90 -1.30 0.30 0 0.60 0.45 0.60 1 0 0.80 -0.35 1 -1.75 1 -1.15 0 -1.75 -0.25 -1.75 -0.70z"/>
  <path d="M174.10 428.90 c0.15 -0.35 0.85 -0.70 1.55 -0.80 0.75 -0.10 1.35 -0.40 1.35 -0.65 0 -0.65 0.65 -0.55 1.80 0.30 0.95 0.70 0.95 0.70 -0.10 0.45 -0.60 -0.15 -1.30 0.05 -1.65 0.50 -0.80 0.95 -3.25 1.10 -2.95 0.20z"/>
  <path d="M165.80 425.05 c-0.25 -0.40 -2.55 -0.90 -5.65 -1.20 -0.65 -0.05 -1.15 -0.30 -1.15 -0.55 0 -0.20 -0.35 -0.25 -0.75 -0.10 -0.45 0.15 -0.90 -0.05 -1.10 -0.50 -0.15 -0.40 -0.60 -0.65 -0.95 -0.50 -0.40 0.15 -0.70 -0.05 -0.70 -0.45 0 -0.35 -0.50 -0.85 -1.10 -1 -0.65 -0.20 -2.10 -0.80 -3.30 -1.40 -1.85 -0.95 -2.20 -1 -2.60 -0.35 -0.40 0.65 -0.50 0.60 -0.50 -0.15 0 -0.55 -0.65 -1.20 -1.70 -1.60 -0.95 -0.40 -1.90 -0.95 -2.05 -1.25 -0.45 -0.75 -4 -2.25 -7 -3.05 -1.35 -0.35 -3 -0.95 -3.65 -1.35 -0.60 -0.40 -1.55 -0.60 -2.10 -0.45 -0.65 0.15 -1 0 -1 -0.50 0 -0.55 -0.35 -0.70 -1.25 -0.45 -0.75 0.20 -1.25 0.10 -1.25 -0.20 0 -0.30 -0.20 -0.40 -0.50 -0.25 -0.25 0.15 -0.50 0.05 -0.50 -0.25 0 -0.30 -0.20 -0.40 -0.50 -0.25 -0.25 0.15 -0.50 0 -0.50 -0.35 0 -0.45 -0.15 -0.45 -0.50 0.10 -0.40 0.65 -0.50 0.60 -0.50 -0.15 0 -0.50 -0.30 -0.85 -0.60 -0.75 -0.35 0.15 -0.95 -0.05 -1.30 -0.45 -0.40 -0.35 -1.15 -0.55 -1.85 -0.35 -0.80 0.20 -1.50 -0.05 -2.15 -0.70 -0.65 -0.65 -1.40 -0.95 -2.05 -0.75 -0.75 0.20 -1.05 0.05 -1.05 -0.55 0 -0.50 -0.30 -0.65 -0.75 -0.50 -0.40 0.20 -0.75 0.05 -0.75 -0.30 0 -0.30 -0.20 -0.40 -0.50 -0.25 -0.25 0.15 -0.50 0.05 -0.50 -0.25 0 -0.35 -0.40 -0.45 -1 -0.25 -0.55 0.20 -1 0.10 -1 -0.20 0 -0.30 -0.35 -0.40 -0.75 -0.25 -0.40 0.20 -0.75 0.05 -0.75 -0.25 0 -0.30 -0.35 -0.40 -0.75 -0.25 -0.40 0.20 -0.75 0.05 -0.75 -0.25 0 -0.30 -0.35 -0.40 -0.75 -0.25 -0.40 0.20 -0.75 0.05 -0.75 -0.25 0 -0.30 -0.35 -0.40 -0.75 -0.25 -0.40 0.20 -0.75 0.05 -0.75 -0.25 0 -0.30 -0.30 -0.40 -0.70 -0.25 -0.40 0.15 -1 -0.05 -1.35 -0.45 -0.35 -0.35 -1.15 -0.60 -1.70 -0.45 -0.60 0.10 -1.40 -0.15 -1.80 -0.50 -0.40 -0.40 -1 -0.65 -1.35 -0.50 -0.30 0.10 -0.60 -0.05 -0.60 -0.35 0 -0.30 -0.35 -0.40 -0.75 -0.25 -0.40 0.20 -0.75 0.05 -0.75 -0.25 0 -0.30 -0.35 -0.40 -0.75 -0.25 -0.40 0.20 -0.75 0.05 -0.75 -0.25 0 -0.30 -0.35 -0.40 -0.75 -0.25 -0.40 0.20 -0.75 0.05 -0.75 -0.25 0 -0.30 -0.35 -0.40 -0.75 -0.25 -0.40 0.20 -0.75 0.05 -0.75 -0.25 0 -0.30 -0.35 -0.40 -0.75 -0.25 -0.40 0.20 -0.75 0.10 -0.75 -0.20 0 -0.30 -0.45 -0.40 -1 -0.25 -0.55 0.15 -1 0 -1 -0.30 0 -0.25 -0.35 -0.40 -0.75 -0.25 -0.40 0.20 -0.75 0.10 -0.75 -0.10 0 -0.25 -0.70 -0.50 -1.60 -0.50 -0.90 -0.05 -1.70 -0.30 -1.80 -0.60 -0.10 -0.30 -0.50 -0.40 -0.90 -0.25 -0.40 0.15 -0.70 0.05 -0.70 -0.25 0 -0.30 -0.45 -0.40 -1 -0.25 -0.55 0.15 -1 0 -1 -0.30 0 -0.25 -0.35 -0.40 -0.75 -0.25 -0.40 0.20 -0.75 0.05 -0.75 -0.25 0 -0.30 -0.35 -0.40 -0.75 -0.25 -0.40 0.20 -0.75 0.10 -0.75 -0.20 0 -0.30 -0.45 -0.40 -1 -0.25 -0.55 0.15 -1 0 -1 -0.30 0 -0.25 -0.35 -0.40 -0.75 -0.25 -0.40 0.20 -0.75 0.05 -0.75 -0.30 0 -0.30 -0.20 -0.40 -0.50 -0.25 -0.25 0.15 -0.50 0 -0.50 -0.35 0 -0.45 -0.15 -0.45 -0.50 0.10 -0.30 0.45 -0.50 0.55 -0.50 0.15 0 -0.35 -0.35 -0.50 -0.75 -0.35 -0.40 0.20 -0.75 0.05 -0.75 -0.25 0 -0.35 -0.45 -0.45 -1.25 -0.25 -0.70 0.15 -1.25 0.10 -1.25 -0.20 0 -0.30 -0.45 -0.40 -1 -0.25 -0.55 0.15 -1 0.05 -1 -0.25 0 -0.30 -0.45 -0.40 -1 -0.25 -0.55 0.15 -1 0.05 -1 -0.20 0 -0.30 -0.55 -0.40 -1.25 -0.25 -0.70 0.10 -1.25 0 -1.25 -0.30 0 -0.30 -0.45 -0.40 -1 -0.25 -0.55 0.15 -1 0.05 -1 -0.25 0 -0.30 -0.45 -0.40 -1 -0.25 -0.55 0.15 -1 0.05 -1 -0.20 0 -0.30 -0.55 -0.40 -1.25 -0.25 -0.75 0.10 -1.25 0 -1.25 -0.35 0 -0.35 -0.45 -0.45 -1.25 -0.25 -0.80 0.20 -1.25 0.10 -1.25 -0.25 0 -0.35 -0.45 -0.45 -1.25 -0.25 -0.70 0.15 -1.25 0.10 -1.25 -0.20 0 -0.30 -0.45 -0.40 -1.05 -0.25 -0.60 0.20 -1.25 0 -1.50 -0.40 -0.35 -0.60 -0.45 -0.60 -0.50 0.05 0 0.50 -0.15 0.40 -0.45 -0.25 -0.40 -0.90 -0.45 -0.85 -0.45 0.40 -0.05 1.50 -0.75 1.80 -1.25 0.55 -0.15 -0.45 -0.30 -2 -0.30 -3.50 0 -2.05 0.20 -2.70 0.75 -2.70 0.40 0 0.70 0.25 0.65 0.60 -0.10 0.40 0.80 0.65 2.60 0.75 2.75 0.15 13.25 1.90 22.25 3.70 10.75 2.20 27.60 6.85 40 11 10.65 3.65 36 14.25 36.75 15.45 0.15 0.20 0.95 0.60 1.75 0.80 1.65 0.40 6.35 2.60 6.75 3.20 0.35 0.50 3.45 1.85 5.15 2.20 0.75 0.20 1.30 0.50 1.15 0.75 -0.30 0.45 1.80 1.55 2.95 1.55 1.10 0 4.25 1.60 3.95 2.05 -0.10 0.20 0.20 0.50 0.75 0.70 1.30 0.40 0.85 2.25 -0.50 1.90 -0.50 -0.15 -0.95 0 -0.95 0.30 0 0.65 -1.80 0.75 -2.20 0.10z"/>
  <path d="M390.90 351.70 c-0.15 -0.15 0.05 -0.95 0.45 -1.80 0.55 -1.05 1.60 -1.90 3.60 -2.75 1.55 -0.70 5.50 -2.55 8.80 -4.15 15.10 -7.30 34.65 -13.45 49.40 -15.55 3.90 -0.55 4.40 -0.75 4.65 -1.80 0.20 -0.60 0.60 -1.15 1 -1.15 0.55 0 0.70 1.20 0.70 6 0 4.80 -0.15 6 -0.70 6 -0.35 0 -0.80 -0.50 -0.95 -1.05 -0.20 -0.80 -0.55 -1 -1.30 -0.80 -0.60 0.15 -1.05 0.05 -1.05 -0.20 0 -0.25 -0.35 -0.45 -0.75 -0.45 -0.40 0 -0.75 0.25 -0.75 0.55 0 0.35 -0.55 0.40 -1.50 0.20 -1 -0.20 -1.50 -0.15 -1.50 0.25 0 0.40 -0.50 0.45 -1.50 0.25 -0.95 -0.20 -1.50 -0.15 -1.50 0.20 0 0.30 -0.60 0.40 -1.50 0.25 -0.90 -0.20 -1.50 -0.10 -1.50 0.20 0 0.25 -0.45 0.40 -1 0.25 -0.55 -0.15 -1 -0.05 -1 0.20 0 0.30 -0.55 0.40 -1.25 0.25 -0.70 -0.10 -1.25 0 -1.25 0.20 0 0.25 -1.20 0.50 -2.65 0.55 -1.40 0.10 -3.05 0.35 -3.60 0.60 -0.55 0.25 -2.80 0.95 -5 1.55 -2.20 0.60 -4.45 1.25 -5 1.50 -0.55 0.20 -2.25 0.85 -3.75 1.45 -1.55 0.55 -3.05 1.05 -3.35 1.05 -0.30 0 -3.45 1.10 -7 2.45 -14.10 5.40 -18.35 6.70 -19.25 5.75z"/>
  <path d="M86 343.15 c0 -0.55 -5.80 -2.65 -7.30 -2.65 -0.60 0 -3.75 -0.70 -7 -1.50 -3.85 -1 -6 -1.35 -6.10 -1 -0.10 0.30 -0.50 0.15 -0.90 -0.35 -0.60 -0.80 -0.75 -0.80 -1.20 -0.15 -0.40 0.65 -0.50 0.65 -0.50 -0.10 0 -1.05 -1.30 -1.20 -1.65 -0.25 -0.20 0.35 -0.30 0.30 -0.30 -0.25 -0.05 -0.60 -1.40 -1.10 -5.90 -2.15 -4.25 -1 -5.90 -1.20 -6.05 -0.80 -0.15 0.45 -0.35 0.40 -0.80 -0.10 -0.30 -0.40 -1.05 -0.90 -1.65 -1.05 -0.85 -0.30 -1.10 -0.10 -1.25 0.80 -0.10 0.65 -0.50 1.20 -0.95 1.30 -0.65 0.10 -0.75 -0.65 -0.75 -5.40 0 -4.20 0.15 -5.50 0.65 -5.50 0.60 0 0.90 0.90 0.70 2.40 -0.05 0.30 0.10 0.60 0.30 0.65 0.20 0 1.40 0.10 2.65 0.20 3.95 0.25 6.20 0.65 9.50 1.70 1.80 0.60 3.75 1.05 4.30 1.05 1.40 0 11.30 2.95 11.95 3.55 0.25 0.25 0.90 0.45 1.40 0.45 1.25 0 7.05 2.05 7.25 2.60 0.10 0.20 0.75 0.40 1.40 0.40 0.65 0 1.20 0.25 1.20 0.50 0 0.30 0.45 0.50 1 0.50 1.05 0 5.10 1.50 5.50 2 0.15 0.20 1.10 0.50 2.20 0.70 1.05 0.20 1.75 0.50 1.60 0.70 -0.20 0.15 0.20 0.60 0.80 0.95 1.05 0.55 0.95 0.60 -1.40 0.65 -1.40 0 -3.95 0.15 -5.65 0.30 -1.80 0.20 -3.05 0.15 -3.05 -0.15z"/>
 </g>
 <g fill="#f5eae1">
  <path d="M242.40 499.70 c-0.20 -0.15 -1.90 -0.65 -3.75 -1 -7.95 -1.70 -15.45 -6.90 -20.15 -14.10 -2.90 -4.45 -4.30 -8.45 -4.80 -13.85 l-0.35 -3.75 -2.80 -0.80 c-1.55 -0.45 -6.95 -2.10 -12.05 -3.70 -14.45 -4.55 -28.10 -8.75 -35.75 -11 -3.85 -1.10 -8.70 -2.60 -10.75 -3.25 -2.05 -0.65 -6.55 -2 -10 -3 -3.45 -1.05 -10.50 -3.20 -15.75 -4.85 -10.35 -3.20 -54.05 -16.10 -69.90 -20.65 -11.20 -3.15 -14.60 -4.35 -17.85 -6.15 -4.90 -2.75 -9.20 -8.15 -11.30 -14.15 -0.90 -2.60 -0.95 -5.65 -0.95 -92.20 0 -83.20 0.05 -90.10 0.90 -97.75 3.70 -33.45 15.05 -66.45 32.05 -93.15 18.60 -29.25 45.90 -55.50 75.80 -72.85 28.20 -16.35 61.30 -27.40 92.65 -30.80 11.15 -1.25 38.95 -1.25 48.85 -0.05 46.55 5.70 83.40 20.95 118.85 49.25 23.90 19.05 44 43.25 57.80 69.60 11.70 22.30 19.95 48.70 22.80 72.75 1.40 11.90 1.55 19.70 1.55 103.50 0 95.10 0.15 89.45 -2.85 95.75 -1.65 3.45 -7.55 9.40 -10.80 10.90 -2.40 1.10 -3.85 1.55 -31.10 9.60 -8.50 2.50 -18.65 5.55 -22.50 6.75 -3.85 1.20 -16.45 5.05 -28 8.50 -11.55 3.45 -25.60 7.75 -31.25 9.50 -5.65 1.75 -16.20 5 -23.50 7.25 -19.70 6.05 -36.70 11.55 -37.25 12.05 -0.25 0.25 -0.40 1.20 -0.35 2.15 0.40 4.30 -2.75 12.30 -6.80 17.25 -4.45 5.45 -12.35 10 -20.20 11.65 -2.95 0.60 -20 1.15 -20.50 0.60z m50.50 -52.90 c3 -1.25 13.45 -4.70 21.85 -7.25 2.75 -0.80 10.30 -3.10 16.75 -5.10 6.45 -1.95 16.15 -4.85 21.50 -6.45 5.35 -1.60 14.95 -4.45 21.25 -6.40 14.10 -4.35 43.20 -13.15 50 -15.20 5.20 -1.55 26.55 -7.30 31.10 -8.35 l2.60 -0.65 0 -14.75 0 -14.75 -3.85 0.35 c-21.25 1.75 -44.80 7.10 -67.35 15.30 -20.50 7.45 -36.25 15.25 -52.20 25.85 -8.50 5.70 -18.15 13.15 -25.05 19.30 -4.55 4.10 -20.15 19.30 -19.80 19.30 0.20 0 1.60 -0.55 3.20 -1.20z m-87.35 -6.50 c-17.40 -17.15 -36.25 -31 -58.80 -43.15 -20.65 -11.20 -54.45 -22.55 -78.45 -26.40 -6 -0.95 -20.15 -2.75 -21.90 -2.75 l-1.40 0 0.30 14.15 c0.15 7.75 0.35 14.15 0.45 14.25 0.05 0.10 8.10 2.40 17.80 5.10 22.35 6.25 95.80 28.25 117.20 35.10 6.05 1.90 12.90 4.05 15.25 4.70 7.95 2.25 12.25 3.70 14.25 4.90 1.10 0.65 2.15 1.25 2.30 1.25 0.20 0.05 -2.95 -3.20 -7 -7.15z m47.45 5.35 c3.55 -9.90 14.70 -28.30 24.70 -40.65 12.05 -15 33.35 -37.10 46.40 -48.20 16.90 -14.40 35.30 -26.95 53 -36.25 25.80 -13.50 61.80 -25.50 76.65 -25.55 1.95 0 3.80 -0.20 4.15 -0.45 0.55 -0.35 0.65 -7.75 0.45 -40.85 -0.20 -43.05 -0.30 -44.95 -2.90 -58.60 -2 -10.50 -6.45 -25.65 -10.70 -36.60 -8.70 -22.30 -20.60 -41.10 -38.15 -60.15 -28 -30.40 -63.20 -51.35 -103.10 -61.35 -16.30 -4.10 -29.20 -5.90 -45.75 -6.35 -25.25 -0.70 -48.45 2.85 -73.75 11.30 -40.90 13.70 -76.75 39.70 -101.50 73.85 -6.95 9.55 -10.55 15.40 -15.80 25.80 -13.40 26.55 -19.75 50.55 -21.45 80.90 -0.15 2.90 -0.40 20.25 -0.50 38.60 l-0.20 33.35 2.85 0.25 c15 1.50 25.95 4.35 46.75 12.10 12.15 4.50 20.25 8.20 31.50 14.25 16.15 8.70 23.75 13.55 38.55 24.60 11.60 8.65 18.40 14.45 32.55 27.80 24.35 22.95 42.65 47.20 52.85 69.95 1.05 2.25 2.05 4.10 2.30 4.10 0.20 0 0.70 -0.85 1.10 -1.85z m30.80 -16.15 c2.75 -3.15 7.80 -8.25 11.20 -11.25 3.40 -3.05 7.60 -6.80 9.40 -8.35 6.65 -5.95 23.90 -18.10 34.35 -24.15 13 -7.55 37.10 -18.25 51.50 -22.90 21.15 -6.85 45.90 -12.15 59.25 -12.65 3.45 -0.15 6.75 -0.35 7.40 -0.50 l1.10 -0.20 0 -18.25 0 -18.25 -1.30 0 c-0.75 0 -3.60 0.35 -6.40 0.80 -17.10 2.65 -43.50 11.85 -61.65 21.50 -28.15 14.85 -45.75 28.30 -74.45 56.95 -17.55 17.45 -22.60 23.40 -36 42.50 -3.30 4.70 -3.75 5.55 -1.35 2.75 1.05 -1.20 4.15 -4.80 6.95 -8z m-58.35 4.90 c-6.65 -9.90 -17.25 -23 -25.50 -31.65 -2.65 -2.75 -6 -6.30 -7.50 -7.85 -5.10 -5.35 -25.30 -23.55 -32.20 -29 -16.10 -12.70 -40.70 -28.10 -56.25 -35.20 -12.60 -5.75 -29.65 -11.75 -41.65 -14.65 -7.50 -1.85 -16.80 -3.55 -17.05 -3.10 -0.10 0.15 -0.20 8.45 -0.20 18.45 0 16.55 0.05 18.10 0.80 18.10 2.45 0.05 19.65 2.10 24.70 2.95 42.40 7.35 82.05 23.65 115.55 47.65 14.05 10.05 28.30 22.70 36.95 32.75 2.20 2.55 4.10 4.65 4.20 4.65 0.15 0 -0.70 -1.40 -1.85 -3.10z"/>
  <path d="M244.25 373.25 c-4.30 -0.75 -10.40 -3.10 -13.75 -5.25 -4.10 -2.65 -9.60 -8.85 -11.90 -13.60 -2.50 -5.05 -3.10 -8.40 -3.10 -18.40 l0 -7.30 -2.70 -4.10 c-4.65 -7 -4.85 -7.95 -4.70 -20.65 l0.15 -10.90 -1.75 -0.80 c-10.40 -4.95 -22.70 -15.75 -30.75 -27 -4.10 -5.70 -10.70 -18.90 -13 -25.90 -0.95 -3 -2.35 -8.40 -3.10 -12 -1.20 -6 -1.35 -7.65 -1.35 -17.85 -0.05 -9.60 0.10 -12.10 1.05 -17 2.25 -11.80 5.95 -21.65 11.50 -30.95 14.60 -24.30 37 -39.35 66.40 -44.60 10.85 -1.95 27.10 -1.35 37.50 1.30 14.25 3.65 28.10 10.70 39.20 20 16.75 14 27.85 33.55 31.90 56.15 1.05 6.05 1.20 21.25 0.20 27.85 -1.95 13.30 -5.90 24.95 -11.85 35.15 -8.20 13.90 -21.30 26.70 -33.95 33.15 l-5 2.55 0 11.85 0 11.80 -1.40 2.85 c-0.75 1.55 -2.40 3.95 -3.60 5.30 l-2.25 2.50 0 9 c0 9.90 -0.55 12.75 -3.55 18.75 -3 5.90 -12.05 13.85 -18.65 16.30 -6.55 2.45 -14.45 3.10 -21.55 1.80z m13.95 -19.80 c3.45 -1.30 7.25 -4.25 8.90 -6.95 1.35 -2.20 2.65 -7.90 1.95 -8.60 -0.20 -0.20 -2 0 -4.05 0.45 -7.50 1.65 -24.75 1 -30.10 -1.10 -0.80 -0.30 -0.90 -0.05 -0.90 2.15 0 1.35 0.40 3.65 0.85 5.05 2.65 8.25 13.85 12.60 23.35 9z m4.20 -34.20 c4.20 -1 10 -3.85 12.20 -6 1.35 -1.30 1.85 -2.30 2.10 -4.05 0.35 -2.85 0.40 -6.95 0.05 -7.30 -0.15 -0.15 -1.70 0.15 -3.40 0.60 -12.30 3.40 -32.45 3.20 -44.70 -0.45 -0.85 -0.25 -1.70 -0.35 -1.85 -0.15 -0.15 0.15 -0.30 2.10 -0.30 4.35 0 3.75 0.10 4.25 1.50 6.15 2.20 3.05 7.90 5.70 15.80 7.35 4.25 0.90 14.05 0.65 18.60 -0.50z m-19.90 -46.50 l0 -11.25 -12.85 -13.10 c-11.75 -12.05 -26.85 -28.05 -30.30 -32.10 -3.80 -4.45 -1.10 -11.85 5.10 -14.05 4.60 -1.60 7.45 -0.45 12.70 5.10 2 2.15 7.15 7.60 11.40 12.10 4.25 4.50 9.10 9.65 10.80 11.50 l3.10 3.30 0.05 -34 0 -34 1.25 -1.85 c3.80 -5.60 13.70 -4.90 16.80 1.15 0.90 1.85 0.95 3.30 0.95 34.80 l0 32.85 2.55 -2.45 c1.40 -1.40 7.80 -8.05 14.25 -14.80 12.90 -13.55 14.50 -14.80 18.55 -14.25 7.20 0.95 12.10 8.50 8.55 13.10 -1.75 2.25 -15.80 17.05 -30.50 32.10 l-13.40 13.65 0 11.50 0 11.45 1.25 0 c2.30 0 8.85 -1.55 14.10 -3.25 24 -8 43.05 -29.70 48.65 -55.50 2.15 -10 1.85 -24.55 -0.75 -34.25 -6.35 -23.65 -23.95 -42.60 -46.95 -50.45 -8.55 -2.95 -14.35 -4.05 -23.10 -4.40 -8.25 -0.30 -12.95 0.15 -20.75 2.10 -6.90 1.70 -10.50 3.05 -16.15 5.85 -17.75 8.85 -30.15 23.45 -36.50 42.95 -2.65 8.30 -3.05 11.10 -3.05 22.45 0.05 14.55 1.70 21.95 7.55 33.75 7.90 16.10 18.70 26.85 34.90 34.80 7.10 3.55 15.90 6.30 20.45 6.40 l1.35 0.05 0 -11.25z"/>
  <path d="M170.25 324.05 c-2.55 -1.50 -19.20 -17.55 -24.05 -23.10 -8.35 -9.60 -11.75 -14.35 -16.90 -23.80 -6.30 -11.60 -10.50 -23.80 -13.20 -38.15 -1.20 -6.65 -1.30 -8.30 -1.35 -20.25 0 -10.25 0.20 -14.25 0.95 -19 2.95 -19.15 10.65 -38.05 21.85 -53.85 5.05 -7.05 8.75 -11.30 10.95 -12.40 7.20 -3.65 15.35 4 11.75 11 -0.50 0.95 -2 3 -3.40 4.50 -12.30 13.45 -21.70 34.60 -24.60 55.20 -0.95 6.90 -0.95 22.30 -0.05 28.80 2.30 15.55 8.05 30.80 16.45 43.50 6.15 9.25 16.70 20.95 24.05 26.65 8.75 6.80 10.30 8.75 10.30 13.15 0 3.05 -1.25 5.50 -3.65 7.25 -1.65 1.20 -2.50 1.45 -4.80 1.45 -1.85 0 -3.30 -0.30 -4.30 -0.95z"/>
  <path d="M325.65 324.50 c-2.40 -0.75 -5 -4.10 -5.65 -7.35 -0.90 -4.30 0.30 -6.20 8.25 -12.80 19.20 -15.90 30.80 -31.35 37.70 -50.30 4.40 -11.95 6.10 -22.50 6.10 -37.40 0 -5.30 -0.10 -9.85 -0.25 -10.05 -0.10 -0.20 -0.45 -2.15 -0.75 -4.35 -0.30 -2.20 -1.25 -6.60 -2.05 -9.80 -4.25 -16.70 -10.25 -28.70 -20.60 -41.50 -5.45 -6.75 -6.10 -7.95 -5.70 -10.90 0.60 -4.45 4.40 -8 8.60 -8.05 3.90 0 9.45 5.70 17.70 18.25 9.95 15.25 16.55 33.45 19.30 53.50 1 7.55 0.75 27.15 -0.50 33.65 -2.05 10.85 -4.10 18.15 -7.65 26.85 -8.25 20.15 -17.70 32.95 -38.65 52.15 -4 3.70 -7.85 7 -8.60 7.40 -1.85 0.95 -5.30 1.25 -7.25 0.70z"/>
  <path d="M85.50 280.10 c-4.65 -2.35 -7.60 -10.50 -11.55 -32.10 -1.35 -7.25 -1.90 -30.60 -0.95 -39 1.95 -17.50 6.55 -35.35 12.95 -50.25 4.80 -11.20 13.30 -25.90 20 -34.70 27.35 -35.80 67.20 -59.90 112.80 -68.30 11.50 -2.10 18.95 -2.75 32.75 -2.75 35.65 0 65.80 8.10 94.25 25.25 10.95 6.60 16.35 10.45 24.50 17.25 24.60 20.65 42 46.35 52 76.75 5.25 15.85 7.80 28.40 8.50 41.50 0.15 3.05 0.40 7.20 0.50 9.30 0.75 12.70 -2.40 34.90 -6.75 47.20 -2.15 6.05 -3.20 7.85 -5.65 9.40 -3.75 2.45 -8.40 1.65 -11.10 -1.85 -2.60 -3.40 -2.60 -4.60 -0.05 -11.95 3.95 -11.60 5.70 -22.45 6.10 -38.35 0.25 -9.30 0.15 -11.90 -0.80 -19.25 -1.30 -10.20 -2.40 -15.85 -4.75 -23.95 -9.35 -32.45 -27.90 -59.55 -54.50 -79.65 -30.10 -22.70 -64.40 -34.15 -102.30 -34.15 -36.80 0 -72.75 12.20 -102.60 34.85 -6.25 4.75 -19.50 17.65 -25.05 24.40 -18.95 23 -30.30 50.40 -33.60 81 -1.90 17.80 0.40 39.60 5.85 55.75 1.85 5.50 1.90 7.30 0.40 10.05 -2.35 4.10 -6.95 5.60 -10.95 3.55z"/>
  <path d="M112.20 484.05 c-1.10 -0.50 -2.85 -1.85 -3.85 -3.05 -4.70 -5.50 -3.05 -14.05 3.30 -17.25 7.85 -3.90 16.55 1.35 16.55 10 0 4.75 -2.65 8.75 -7.05 10.60 -2.30 0.95 -6.55 0.80 -8.95 -0.30z"/>
  <path d="M380.65 484 c-5.20 -2.65 -7.65 -9.90 -5.20 -15.25 2 -4.45 7.60 -7.30 12.30 -6.25 5.75 1.30 9.65 6.40 9.10 11.85 -0.35 3.50 -2.35 6.80 -5.25 8.85 -2.90 2.05 -7.80 2.40 -10.95 0.80z"/>
 </g>
</svg>