<svg xmlns="http://www.w3.org/2000/svg" viewBox="0 0 26 26" fill="none" aria-hidden="true">
  <path d="M15 22C10.0294 22 6 17.9706 6 13C6 8.02939 10.0294 4 15 4M10.3635 18.5622C7.2966 15.989 6.89677 11.417 9.46998 8.35026C12.0432 5.28338 16.6151 4.88355 19.6819 7.45675M12.4088 17.8643C9.72407 16.447 8.69627 13.1212 10.1136 10.4368C11.5308 7.75157 14.8559 6.72427 17.5411 8.14156M15 16.746C12.9314 16.746 11.2543 15.0689 11.2543 13.0003C11.2543 10.9316 12.9314 9.25454 15 9.25454" stroke="#F15A29" stroke-width="1.5" stroke-miterlimit="10"/>
  <path fill-rule="evenodd" clip-rule="evenodd" d="M16.0496 11.9553C15.7496 11.6408 15.4139 11.4334 15.0567 11.4334C14.5784 11.4334 14.2038 11.6074 13.928 11.9124C13.6566 12.1984 13.5208 12.5988 13.5208 12.9992C13.5208 13.4021 13.6582 13.8018 13.928 14.0861C14.4904 14.6786 15.5355 14.7633 16.0639 14.0789L16.9354 15.0156C16.4542 15.4972 15.7316 15.7377 15.0567 15.7377C14.2637 15.7377 13.5449 15.4688 13.0494 14.987C12.535 14.5151 12.2207 13.8143 12.2207 12.9992C12.2207 12.1698 12.535 11.4977 13.0494 11.0115C13.5666 10.537 14.2895 10.2607 15.0567 10.2607C15.3924 10.2607 15.7282 10.3251 16.0639 10.4538C16.3997 10.5825 16.6997 10.7827 16.9497 11.0544L16.0496 11.9553Z" fill="currentColor"/>
</svg>

