<svg xmlns="http://www.w3.org/2000/svg" viewBox="0 0 26 26" aria-hidden="true">
  <path fill-rule="evenodd" clip-rule="evenodd" d="M9.48 14.92C10.0133 14.92 11.08 14.8933 12.5733 14.28C14.3067 13.56 17.72 12.28 20.2 10.9467C21.9333 10.0133 22.68 8.78667 22.68 7.13333C22.68 4.86667 20.84 3 18.5467 3H8.94667C5.66667 3 3 5.66667 3 8.94667C3 12.2267 5.50667 14.92 9.48 14.92Z" fill="#39594D"/>
  <path fill-rule="evenodd" clip-rule="evenodd" d="M11.1066 19C11.1066 17.4 12.0666 15.9333 13.5599 15.32L16.5732 14.0666C19.6399 12.8133 22.9999 15.0533 22.9999 18.36C22.9999 20.92 20.9199 23 18.3599 23H15.0799C12.8932 23 11.1066 21.2133 11.1066 19Z" fill="#D18EE2"/>
  <path d="M6.44 15.6934C4.54667 15.6934 3 17.24 3 19.1334V19.5867C3 21.4534 4.54667 23 6.44 23C8.33333 23 9.88 21.4534 9.88 19.56V19.1067C9.85333 17.24 8.33333 15.6934 6.44 15.6934Z" fill="#FF7759"/>
</svg>

