<svg xmlns="http://www.w3.org/2000/svg" viewBox="0 0 26 26" aria-hidden="true">
  <rect x="2.43628" y="2.43652" width="21.1274" height="21.1274" rx="3.54011" fill="#0C0A09"/>
  <path d="M21.0962 6.7616C20.2483 6.2632 19.1029 6 17.7812 6C15.7596 6 13.5312 6.6139 11.5294 7.6821L11.5152 7.6772L11.5124 7.6919C10.9068 8.0167 10.3196 8.3786 9.7685 8.7825C6.52079 11.1632 5.61129 13.9884 6.37912 15.499C5.53833 16.8794 5.02125 18.3081 5 20C6.615 17.0369 7.584 14.6359 12.8455 10.5934C11.3424 10.9035 8.74425 12.3749 6.99608 14.6079C6.83104 13.3017 7.90275 11.1926 10.2898 9.4426C10.593 9.2214 10.9068 9.0142 11.2277 8.8175C10.9769 9.5672 11.0577 9.381 10.537 10.4324C11.3063 9.7317 11.812 9.2984 12.5721 8.0979C13.5368 7.63815 14.5536 7.29388 15.6009 7.0724C15.4323 7.6093 15.1122 8.5193 14.6787 9.2389C14.6787 9.2389 15.7787 9.0121 16.6882 9.0639C16.1917 9.591 15.744 10.1622 15.2907 10.746C14.6702 11.5454 14.0284 12.3714 13.206 13.1407C13.1069 13.2338 13.0127 13.3178 12.917 13.4046C11.6534 13.2877 10.8197 13.7427 10.0377 14.5456C10.6539 14.2691 11.4827 14.0416 12.0012 14.1788C11.0449 14.9299 9.53829 15.9197 8.30083 15.8378C8.06567 16.1822 8.05079 16.1927 7.79296 16.6078C9.80108 17.0894 12.3227 15.1252 13.8067 13.7357C14.6772 12.9209 15.3402 12.0676 15.9813 11.2437C17.3002 9.5448 18.4399 8.0776 20.968 7.5197L22 7.2922L21.0962 6.7616Z" fill="#FFE184"/>
</svg>

