<svg xmlns="http://www.w3.org/2000/svg" viewBox="0 0 26 26" aria-hidden="true">
  <path d="M19.7941 2.5H6.20588C4.15918 2.5 2.5 4.15918 2.5 6.20588V19.7941C2.5 21.8408 4.15918 23.5 6.20588 23.5H19.7941C21.8408 23.5 23.5 21.8408 23.5 19.7941V6.20588C23.5 4.15918 21.8408 2.5 19.7941 2.5Z" fill="#5019C5"/>
  <path fill-rule="evenodd" clip-rule="evenodd" d="M12.9917 14.8005C12.4958 14.8005 12.0508 14.5061 11.861 14.0503L9.57335 8.58789H10.9123L12.9995 13.5848L15.0847 8.58789H16.4237L14.1223 14.0523C13.9316 14.5061 13.4875 14.8005 12.9917 14.8005ZM15.9767 17.4106C15.4828 17.4106 15.0398 17.1181 14.8481 16.6663C14.6554 16.2105 14.7551 15.6902 15.1034 15.3371L19.2699 11.1168L19.7902 12.3442L15.9758 16.2007L21.4128 16.1704L21.9331 17.3979L15.9777 17.4125L15.9758 17.4106H15.9767ZM4.58722 16.1684L4.06689 17.3959L4.06885 17.394L10.0242 17.4076C10.5162 17.4076 10.9612 17.1162 11.1529 16.6633C11.3466 16.2085 11.2458 15.6863 10.8977 15.3342L6.73113 11.1138L6.2108 12.3413L10.0242 16.1988L4.58722 16.1684Z" fill="white"/>
</svg>

