<svg xmlns="http://www.w3.org/2000/svg" viewBox="0 0 26 26" aria-hidden="true">
  <rect x="2.43628" y="2.43652" width="21.1274" height="21.1274" rx="3.54011" fill="#F55036"/>
  <path d="M13.024 6.00018C10.2759 5.97721 8.02405 8.10452 8.00019 10.751C7.97634 13.3975 10.1853 15.5662 12.9333 15.5892H14.6604V13.7927H13.024C11.3064 13.811 9.89424 12.4878 9.87516 10.8291C9.85607 9.17047 11.2301 7.81506 12.9524 7.79668C12.9762 7.79668 13.0001 7.79668 13.024 7.79668C14.7415 7.79668 16.1346 9.13831 16.1441 10.7924V15.2078C16.1441 16.8481 14.7558 18.1851 13.0573 18.2035C12.2415 18.1989 11.4639 17.8819 10.8914 17.3259L9.56982 18.5986C10.4858 19.4854 11.7263 19.9908 13.024 20H13.0907C15.8054 19.9632 17.9857 17.8405 18 15.2262V10.6729C17.9332 8.07695 15.7243 6.00478 13.024 6.00018Z" fill="white"/>
</svg>

