<svg xmlns="http://www.w3.org/2000/svg" viewBox="0 0 26 26" aria-hidden="true">
  <path d="M3.4211 4.72C3.66077 4.42 4.22 3.9 4.65939 3.58C5.09879 3.26 5.71793 3 6.03749 3C6.397 3 6.69659 3.16 6.87634 3.46C7.03612 3.7 7.67524 5.14 8.27442 6.64C8.89356 8.16 9.39287 9.58 9.39287 9.8C9.39287 10.18 9.35293 10.2 8.15458 9.9C7.45554 9.72 6.35705 9.34 5.69796 9.02C5.03887 8.7 4.16008 8.06 3.76063 7.62C3.16145 6.98 3.00167 6.64 3.00167 6.06C2.9817 5.58 3.14148 5.1 3.4211 4.72Z" fill="#594CE9"/>
  <path d="M17.7813 6.4C18.3406 5.02 18.9397 3.7 19.0995 3.46C19.2793 3.16 19.5988 3 19.9384 3C20.2379 3 20.8371 3.24 21.2765 3.56C21.7159 3.88 22.2552 4.34 22.4749 4.6C22.7545 4.92 22.8743 5.32 22.8743 6C22.8743 6.84 22.7745 7.08 22.1753 7.7C21.7958 8.1 20.937 8.68 20.2779 9C19.6188 9.32 18.5003 9.72 16.4831 10.2L16.6029 9.54C16.6828 9.2 17.2021 7.78 17.7813 6.4Z" fill="#594CE9"/>
  <path d="M4.71931 10.8C4.5795 10.3 4.39975 9.72 4.31986 9.52C4.23997 9.24 4.27991 9.16 4.45967 9.24C4.5795 9.32 5.23859 9.6 5.89769 9.86C6.55678 10.14 7.81505 10.52 8.69384 10.7C9.75238 10.92 11.2104 11.04 12.9879 11.04C14.7455 11.04 16.2434 10.92 17.282 10.7C18.1608 10.52 19.5189 10.1 20.2779 9.78C21.0568 9.48 21.6959 9.24 21.7359 9.26C21.7559 9.28 21.616 9.66 21.4363 10.1C21.1966 10.66 21.0968 11.48 21.0768 12.9C21.0768 14.36 21.1767 15.14 21.4363 15.8C21.636 16.3 21.7559 16.72 21.7359 16.74C21.6959 16.76 21.0568 16.52 20.2779 16.22C19.5189 15.9 18.1608 15.48 17.282 15.3C16.2235 15.06 14.7655 14.96 12.9879 14.96C11.2104 14.96 9.75238 15.06 8.69384 15.3C7.81505 15.48 6.47689 15.9 5.69796 16.22C4.93901 16.52 4.27991 16.76 4.25994 16.74C4.23997 16.72 4.39975 16.2 4.59947 15.6C4.83914 14.94 4.99892 13.94 4.99892 13.1C4.99892 12.34 4.87909 11.3 4.71931 10.8Z" fill="#594CE9"/>
  <path d="M5.69796 17C6.35705 16.68 7.43557 16.3 8.07469 16.14C9.13323 15.88 9.27304 15.9 9.33296 16.18C9.39287 16.36 9.05334 17.44 8.59397 18.6C8.13461 19.76 7.53543 21.2 7.23584 21.8C6.79645 22.7 6.59672 22.9 6.15733 22.96C5.83777 22.98 5.29851 22.82 4.95898 22.62C4.59947 22.42 4.0003 21.92 3.66077 21.52C3.14148 20.96 3.00167 20.62 3.00167 20C3.00167 19.36 3.14148 19.04 3.76063 18.38C4.16008 17.94 5.03887 17.3 5.69796 17Z" fill="#594CE9"/>
  <path d="M17.7813 19.6C17.2021 18.22 16.7028 16.84 16.6629 16.52L16.583 15.94L17.4817 16.06C17.981 16.14 18.9797 16.44 19.7386 16.74C20.6174 17.1 21.4163 17.62 22.0754 18.24C23.074 19.2 23.074 19.22 22.9342 20.16C22.8543 20.68 22.6346 21.28 22.4349 21.48C22.2352 21.68 21.7159 22.12 21.2765 22.44C20.8371 22.76 20.2379 23 19.9384 23C19.5788 23 19.2793 22.84 19.0995 22.56C18.9397 22.3 18.3406 20.98 17.7813 19.6Z" fill="#594CE9"/>
</svg>

