<svg xmlns="http://www.w3.org/2000/svg" viewBox="0 0 26 26" aria-hidden="true">
  <rect x="3.14136" y="2.43652" width="21.1274" height="21.1274" rx="3.54011" fill="#D9FE00"/>
  <path fill-rule="evenodd" clip-rule="evenodd" d="M22 5.2226H19V18.4781C19 18.4781 22 18.2885 22 14.6817V5.2226ZM4 11.3183V20.7701H7V7.5146C7 7.5146 8.80257 7.25164 9.75584 9.56444L13.5339 18.6933C14.1519 20.1708 15.1636 21 16.5923 21C18.021 21 19 19.7855 19 18.4842C19 18.4842 17.1974 18.7471 16.2383 16.4356L12.4661 7.30668C11.8481 5.82923 10.8364 5 9.40771 5C7.97897 5 7 6.21327 7 7.5146C6.99416 7.5146 4 7.71029 4 11.3183Z" fill="#002C44"/>
</svg>

