<svg xmlns="http://www.w3.org/2000/svg" viewBox="0 0 26 26" aria-hidden="true">
  <rect x="2.43628" y="2.43652" width="21.1274" height="21.1274" rx="3.54011" fill="black"/>
  <path d="M10.7187 5.79061C10.6923 5.80858 10.6791 6.78313 10.6835 8.13942L10.6923 10.4568C4.90331 16.3759 3.23298 18.105 3.24617 18.1274C3.25496 18.1454 4.93408 18.1589 6.97804 18.1589H10.6923C10.6923 14.5391 10.7055 13.4792 10.7275 13.4703C10.7451 13.4568 11.7956 14.5077 13.066 15.8056L15.3736 18.1589C21.1143 18.1589 22.789 18.1454 22.7978 18.123C22.811 18.105 20.1077 15.3161 16.789 11.9253C13.4703 8.53463 10.7407 5.77265 10.7187 5.79061Z" fill="#26D57A"/>
</svg>

