<svg xmlns="http://www.w3.org/2000/svg" viewBox="0 0 26 26" aria-hidden="true">
  <rect x="2.43628" y="2.43652" width="21.1274" height="21.1274" rx="3.54011" fill="#F6F7F8"/>
  <path d="M22 9.10907C22 8.12421 20.818 7.62981 20.1246 8.32459L10.6151 17.852C10.4793 17.9881 10.575 18.2215 10.7667 18.2215H12.1408C12.206 18.2215 12.2711 18.2165 12.3355 18.2066L14.4558 17.8806C15.7981 17.6743 17.1644 17.6827 18.5041 17.9056L20.2984 18.204C20.3679 18.2156 20.4382 18.2214 20.5086 18.2214H21.4747C21.7648 18.2214 22 17.9847 22 17.6927V9.10907Z" fill="#09090B"/>
  <path opacity="0.6" d="M7.30146 18.2187C7.11013 18.2188 7.01423 17.986 7.14943 17.8497L13.7249 11.2215C14.1094 10.8339 14.7332 10.8337 15.118 11.221C15.5025 11.608 15.5025 12.2355 15.118 12.6226L9.85653 17.9185C9.66556 18.1107 9.40653 18.2187 9.13644 18.2187H7.30146Z" fill="#6B6B6D"/>
  <path opacity="0.4" d="M4.51022 18.2196C4.05682 18.2196 3.82952 17.668 4.1498 17.345L8.14569 13.3149C8.53008 12.9272 9.15395 12.9269 9.53872 13.3142C9.92319 13.7012 9.92319 14.3286 9.53872 14.7156L6.35585 17.9193C6.16487 18.1116 5.90585 18.2196 5.63576 18.2196H4.51022Z" fill="#9D9D9D"/>
</svg>

