<svg  xmlns="http://www.w3.org/2000/svg" xmlns:xlink="http://www.w3.org/1999/xlink" aria-hidden="true" focusable="false" role="img" width="26" height="26" preserveAspectRatio="xMidYMid meet" viewBox="0 0 26 26"><rect x="2.43628" y="2.43652" width="21.1274" height="21.1274" rx="3.54011" fill="#FA0000" fill-opacity="0.8"></rect><path d="M6.01244 6C6.01244 6 16.0931 8.82252 21 10.42C21 11.4496 21 12.4792 21 13.54C16.108 14.7345 11.1331 15.6974 6.19878 16.712C11.0832 16.7206 15.9676 16.7292 21 16.738C21 17.4845 21 18.2309 21 19C16.0541 19 11.1082 19 6.01244 19C6.01244 17.4384 6.01244 15.8769 6.01244 14.268C9.87007 13.4923 13.7057 12.6124 17.5659 11.85C17.5659 11.8414 17.5659 11.8328 17.5659 11.824C13.7616 10.7923 9.98546 9.6648 6.18599 8.61655C6.15829 8.60897 6.13059 8.60138 6.10205 8.59357C6.03906 8.574 6.03906 8.574 6.01244 8.548C5.98526 7.70021 6.01086 6.84781 6.01244 6Z" fill="#F1F0E6"></path></svg>