<svg xmlns="http://www.w3.org/2000/svg" viewBox="0 0 26 26" aria-hidden="true">
  <path d="M23.9395 23H22.8288V9.38464C22.8288 6.5566 20.4901 4.11242 17.6039 4.11242H10.3219C7.43574 4.11242 5.10488 6.44692 5.10488 9.2828C5.10488 12.1108 7.43574 14.4454 10.3219 14.4454H11.0493C12.2695 14.4454 13.2707 15.4481 13.2707 16.6702C13.2707 17.8923 12.2695 18.8872 11.0493 18.8872H3.93945V17.7826H10.9946C11.6047 17.7826 12.1053 17.2812 12.1053 16.725C12.1053 16.114 11.6047 15.6674 10.9946 15.6674H10.2672C6.82565 15.6126 3.93945 12.7767 3.93945 9.2828C3.93945 5.78104 6.82565 3 10.3219 3H17.6587C21.1002 3 23.9395 5.94555 23.9395 9.38464V23Z" fill="#EE7624"/>
  <path d="M11.1041 13.6069C12.6606 13.6617 14.1624 15.0562 14.1624 16.717C14.1624 18.3856 12.7701 19.827 11.0493 19.827H3.93945V20.9394H10.9946C13.3255 20.9394 15.2652 19.0515 15.2652 16.717C15.2652 16.1137 15.1557 15.5575 14.882 15.0013C14.6551 14.5 14.2719 13.9986 13.8808 13.6069C13.435 13.223 12.9344 12.941 12.379 12.7217C11.7142 12.5023 11.0493 12.5571 10.3219 12.5023C9.93085 12.5023 9.047 12.2751 8.54641 11.9461C8.04583 11.6092 7.65474 11.1627 7.43574 10.6692C7.26366 10.2226 7.15416 9.7761 7.15416 9.27473C7.15416 7.55127 8.54641 6.16466 10.2672 6.16466H17.5961C19.3168 6.16466 20.7091 7.66878 20.7091 9.32957V22.9919H21.8198V9.3844C21.8198 7.05773 19.9348 5.05225 17.5961 5.05225H10.3219C7.99108 5.05225 6.0513 6.94022 6.0513 9.27473C6.0513 9.88577 6.16081 10.442 6.43456 10.9982C6.66139 11.4996 6.9899 12.0009 7.43574 12.3848C7.82682 12.7765 8.38216 13.0507 8.88275 13.2779C9.1565 13.3875 9.43808 13.4424 9.76659 13.4972C10.5488 13.552 11.0493 13.6069 11.1041 13.6069Z" fill="#EE7624"/>
  <path d="M10.9946 23H3.93945V21.8876H10.9946C13.8808 21.8876 16.2116 19.5531 16.2116 16.7172C16.2116 13.8892 13.8808 11.5546 10.9946 11.5546H10.2672C9.047 11.5546 8.04583 10.5519 8.04583 9.32981C8.04583 8.10772 9.047 7.10498 10.2672 7.10498H17.6039C18.8241 7.10498 19.8253 8.16256 19.8253 9.38465V22.9922H18.7146V9.38465C18.7146 8.78144 18.214 8.22523 17.6587 8.22523H10.3219C9.71184 8.22523 9.27383 8.7266 9.27383 9.27498C9.27383 9.83118 9.77442 10.3326 10.3845 10.3326H11.1041C14.6004 10.3326 17.4396 13.1606 17.4396 16.6075C17.3849 20.1641 14.4909 22.9922 10.9946 22.9922V23Z" fill="#EE7624"/>
</svg>

