<svg xmlns="http://www.w3.org/2000/svg" xmlns:xlink="http://www.w3.org/1999/xlink" aria-hidden="true" focusable="false" role="img" width="26" height="26" preserveAspectRatio="xMidYMid meet" viewBox="0 0 26 26"><rect x="2.43628" y="2.43652" width="21.1274" height="21.1274" rx="3.54011" fill="#8C40EF" fill-opacity="0.8"></rect><path d="M12.8596 18H15.8212C16.135 17.961 16.4253 17.8099 16.641 17.5733C16.8566 17.3366 16.9838 17.0297 17 16.7065V12.355C17 11.7778 16.5406 11.3104 15.9739 11.3104C15.4078 11.3104 14.9484 11.7778 14.9484 12.355V15.1175C14.9466 15.3245 14.8652 15.5225 14.7218 15.6685C14.5784 15.8146 14.3846 15.8969 14.1824 15.8977H12.8456C12.5743 15.898 12.3141 16.0082 12.1218 16.2042C11.9296 16.4003 11.8209 16.6662 11.8195 16.944V16.9584C11.8229 17.2376 11.9343 17.504 12.1293 17.6993C12.3242 17.8945 12.5869 18.0027 12.8596 18ZM11.0844 14.8101C10.9423 14.8105 10.8016 14.7822 10.6703 14.7269C10.5389 14.6717 10.4195 14.5904 10.3188 14.4879C10.2181 14.3854 10.1381 14.2635 10.0834 14.1293C10.0287 13.9951 10.0004 13.8512 10 13.7058V9.35497C10.0177 9.01674 10.1511 8.69567 10.3767 8.44796C10.6024 8.20025 10.9059 8.04168 11.2342 8H14.2028C14.4904 7.99963 14.7666 8.11479 14.9721 8.32073C15.1776 8.52666 15.2959 8.80694 15.3017 9.10129C15.3047 9.39676 15.1921 9.68148 14.9887 9.89159C14.7846 10.1023 14.5071 10.2211 14.2168 10.2223H12.873C12.4824 10.2223 12.1658 10.5446 12.1658 10.9427V13.7052C12.1658 14.3141 11.6819 14.8083 11.0838 14.8095L11.0844 14.8101Z" fill="white"></path><path d="M14.0683 6.94927C15.1121 6.94772 16.1139 7.3493 16.8537 8.06581C17.2186 8.41935 17.5079 8.83979 17.7047 9.3028C17.9015 9.76582 18.0019 10.2622 18.0002 10.7633V18.0803C17.9544 18.3283 17.8289 18.5559 17.6419 18.7303C17.455 18.9048 17.216 19.0171 16.9593 19.0513H11.9312C10.8893 19.0523 9.88944 18.652 9.15008 17.9378C8.78547 17.5853 8.49616 17.1661 8.29883 16.7043C8.10149 16.2425 8.00004 15.7473 8.00031 15.2472V8.1326C8 7.81898 8.1269 7.51791 8.35342 7.29478C8.57995 7.07166 8.88781 6.9445 9.21014 6.94092L14.0683 6.94927ZM14.0854 5.00001H9.13399C7.4029 5.00367 6.00107 6.36178 6 8.03607V15.2832C6.00014 16.0353 6.15331 16.78 6.4507 17.4743C6.74808 18.1685 7.18379 18.7987 7.7327 19.3283C8.84531 20.4019 10.3497 21.003 11.9167 21H17.1524C18.6443 20.8836 19.8402 19.7567 20 18.3166V10.7069C19.999 9.95556 19.8452 9.21182 19.5475 8.51855C19.2497 7.82528 18.8139 7.19619 18.2651 6.66753C17.1533 5.59624 15.6508 4.99673 14.086 5.00001H14.0854Z" fill="white"></path></svg>