<svg xmlns="http://www.w3.org/2000/svg" viewBox="0 0 26 26" aria-hidden="true">
  <g clip-path="url(#clip0_55_1726)">
    <path d="M19.925 2.5H6.33674C4.29004 2.5 2.63086 4.15918 2.63086 6.20588V19.7941C2.63086 21.8408 4.29004 23.5 6.33674 23.5H19.925C21.9717 23.5 23.6309 21.8408 23.6309 19.7941V6.20588C23.6309 4.15918 21.9717 2.5 19.925 2.5Z" fill="#F1EFED"/>
    <path fill-rule="evenodd" clip-rule="evenodd" d="M17.6087 12.5368C19.6554 12.5368 21.3146 10.8776 21.3146 8.83088C21.3146 6.78418 19.6554 5.125 17.6087 5.125C15.562 5.125 13.9028 6.78418 13.9028 8.83088C13.9028 10.8776 15.562 12.5368 17.6087 12.5368ZM17.6087 21.1842C19.6554 21.1842 21.3146 19.525 21.3146 17.4783C21.3146 15.4316 19.6554 13.7725 17.6087 13.7725C15.562 13.7725 13.9028 15.4316 13.9028 17.4783C13.9028 19.525 15.562 21.1842 17.6087 21.1842ZM12.6676 17.4783C12.6676 19.525 11.0084 21.1842 8.96174 21.1842C6.91504 21.1842 5.25586 19.525 5.25586 17.4783C5.25586 15.4316 6.91504 13.7725 8.96174 13.7725C11.0084 13.7725 12.6676 15.4316 12.6676 17.4783Z" fill="#D3D1D1"/>
    <path d="M8.96174 12.5368C11.0084 12.5368 12.6676 10.8776 12.6676 8.83088C12.6676 6.78418 11.0084 5.125 8.96174 5.125C6.91504 5.125 5.25586 6.78418 5.25586 8.83088C5.25586 10.8776 6.91504 12.5368 8.96174 12.5368Z" fill="#0F6FFF"/>
  </g>
  <defs>
    <clipPath id="clip0_55_1726">
      <rect width="21" height="21" fill="white" transform="translate(2.63086 2.5)"/>
    </clipPath>
  </defs>
</svg>

