<svg width="26" height="26" viewBox="0 0 12 12" fill="none" xmlns="http://www.w3.org/2000/svg"><g clip-path="url(#a)"><mask id="b" style="mask-type:luminance" maskUnits="userSpaceOnUse" x="0" y="0" width="12" height="12"><path d="M12 0H0v12h12V0Z" fill="#fff"/></mask><g mask="url(#b)"><mask id="c" style="mask-type:luminance" maskUnits="userSpaceOnUse" x="0" y="0" width="12" height="12"><path d="M12 0H0v12h12V0Z" fill="#fff"/></mask><g mask="url(#c)"><path d="M9.806 11.404H2.198a1.6 1.6 0 0 1-1.6-1.6V2.196a1.6 1.6 0 0 1 1.6-1.6H9.81a1.6 1.6 0 0 1 1.6 1.6v7.612a1.605 1.605 0 0 1-1.604 1.596Z" fill="#2D2D2D" stroke="#fff" stroke-width=".292" stroke-miterlimit="10"/><path d="m6.189 2.84-.52.74a.44.44 0 0 1-.36.188h-2.84v-.932c-.004.004 3.72.004 3.72.004ZM9.721 2.84 5.257 9.164H2.281L6.745 2.84h2.976ZM5.813 9.164l.523-.744a.44.44 0 0 1 .36-.188h2.837v.932h-3.72Z" fill="#fff"/></g></g></g><defs><clipPath id="a"><path fill="#fff" d="M0 0h12v12H0z"/></clipPath></defs></svg>