<svg width="30" height="30"  viewBox="0 0 13 12" fill="none" xmlns="http://www.w3.org/2000/svg">
	<path
		fill="#FFD21E"
		d="M1.76 5.63a3.7 3.7 0 0 1 3.7-3.7h1.7a3.43 3.43 0 0 1 0 6.87H3.07L2.01 9.83a.14.14 0 0 1-.25-.1v-4.1Z"
	/>
	<path
		fill="#32343D"
		d="M7.37 4.8c.13.05.19.33.33.25a.54.54 0 0 0 .22-.73.54.54 0 0 0-.73-.22.54.54 0 0 0-.22.73c.06.13.27-.08.4-.03ZM4.83 4.8c-.14.05-.2.33-.33.25a.54.54 0 0 1-.23-.73A.54.54 0 0 1 5 4.1c.26.14.36.47.22.73-.06.13-.27-.08-.4-.03ZM6.12 7.4c1.06 0 1.4-.96 1.4-1.44 0-.49-.62.26-1.4.26-.77 0-1.4-.75-1.4-.26 0 .48.34 1.43 1.4 1.43Z"
	/>
	<path
		fill="#FF323D"
		d="M6.97 7.12c-.2.16-.49.27-.85.27-.34 0-.6-.1-.81-.24a.94.94 0 0 1 .57-.49c.04-.01.09.06.13.14.05.07.1.15.14.15.05 0 .1-.08.14-.15.05-.08.1-.15.14-.13a.93.93 0 0 1 .54.45Z"
	/>
</svg>