<svg width="32" height="32" viewBox="0 0 32 32" fill="none" xmlns="http://www.w3.org/2000/svg">
<path d="M15.9983 29.4948C13.0628 29.4945 10.2072 28.5373 7.86457 26.7682C5.5219 24.9992 3.81971 22.5147 3.01592 19.6913C2.21212 16.8679 2.35055 13.8595 3.41021 11.1218C4.46988 8.3841 6.39303 6.06645 8.88827 4.51999C11.3834 2.97353 14.3147 2.28256 17.238 2.55178C20.1613 2.82098 22.9171 4.0357 25.0879 6.01187C27.2587 7.98806 28.7262 10.618 29.2681 13.5031C29.8098 16.3882 29.3965 19.3714 28.0906 22.0005C27.8398 22.4801 27.775 23.0355 27.9084 23.5601L28.7185 26.568C28.7985 26.8653 28.7987 27.1784 28.7192 27.4758C28.6397 27.7732 28.4832 28.0444 28.2655 28.262C28.0478 28.4797 27.7766 28.6362 27.4792 28.7157C27.1818 28.7952 26.8688 28.795 26.5715 28.715L23.5636 27.9049C23.0421 27.774 22.4909 27.839 22.014 28.0872C20.1405 29.0188 18.0846 29.5051 15.9983 29.5051V29.4948Z" fill="black"/>
<path d="M7.39079 15.9949C7.39079 15.1558 8.07054 14.4761 8.9096 14.4761C9.74853 14.4761 10.4284 15.1558 10.4284 15.9949C10.4284 17.4721 11.0152 18.8892 12.0598 19.9338C13.1044 20.9783 14.5215 21.5652 15.9988 21.5653C17.476 21.5653 18.8931 20.9783 19.9377 19.9338C20.9824 18.8892 21.5692 17.4721 21.5692 15.9949C21.5692 15.1558 22.2491 14.4761 23.088 14.4761C23.9269 14.4761 24.6067 15.1558 24.6067 15.9949C24.6067 18.2779 23.7002 20.4675 22.0858 22.0819C20.4715 23.6963 18.2818 24.6028 15.9988 24.6028C13.7158 24.6028 11.526 23.6963 9.91164 22.0819C8.29739 20.4675 7.39079 18.2779 7.39079 15.9949Z" fill="white"/>
</svg>
