
<svg height="55" viewBox="0 0 575 100" fill="none" xmlns="http://www.w3.org/2000/svg"><path d="M46.529 98.852c-25.566 0-46.29-20.724-46.29-46.29 0-25.565 20.724-46.289 46.29-46.289 25.565 0 46.289 20.724 46.289 46.29 0 7.406-1.74 14.405-4.828 20.612-.824 1.648-1.097 3.532-.62 5.315l2.754 10.303a6.017 6.017 0 0 1-7.365 7.37l-10.304-2.76a7.546 7.546 0 0 0-5.319.617 46.104 46.104 0 0 1-20.607 4.832Z" fill="#fff"/><path d="M70.83 52.563c0 13.421-10.88 24.302-24.302 24.302-13.422 0-24.302-10.88-24.302-24.302" stroke="#000" stroke-width="10.415" stroke-linecap="round"/><path d="M127.317 78.022V26.608h11.592v19.793h17.742V26.608h11.671v51.414h-11.671V56.573h-17.742v21.45h-11.592Zm63.938.946c-4.258 0-7.36-1.393-9.305-4.179-1.892-2.839-2.839-6.703-2.839-11.592V38.91h11.592v22.789c0 2.786.394 4.731 1.183 5.835.789 1.052 2.024 1.577 3.706 1.577 1.472 0 2.708-.341 3.706-1.025.999-.683 2.077-1.787 3.234-3.312V38.91h11.591v39.112h-9.462l-.868-5.44h-.236c-1.63 1.944-3.417 3.495-5.363 4.652-1.945 1.156-4.258 1.734-6.939 1.734Zm47.026 15.693c-3.049 0-5.809-.342-8.279-1.026-2.471-.683-4.443-1.76-5.915-3.233-1.472-1.472-2.208-3.364-2.208-5.677 0-3.154 1.867-5.783 5.599-7.886v-.315a10.198 10.198 0 0 1-2.602-2.602c-.683-1.052-1.025-2.392-1.025-4.022 0-1.42.42-2.786 1.262-4.1a10.882 10.882 0 0 1 3.154-3.234v-.315c-1.367-.946-2.603-2.313-3.706-4.1-1.052-1.788-1.578-3.812-1.578-6.072 0-3.155.763-5.757 2.287-7.807 1.525-2.103 3.522-3.68 5.993-4.731 2.471-1.052 5.1-1.577 7.886-1.577 2.313 0 4.337.315 6.072.946h14.272v8.437h-6.229c.368.579.657 1.315.867 2.208.263.894.395 1.867.395 2.918 0 2.996-.684 5.467-2.051 7.412-1.366 1.945-3.206 3.391-5.52 4.337-2.313.947-4.915 1.42-7.806 1.42-1.525 0-3.102-.263-4.732-.789-.946.789-1.419 1.761-1.419 2.918 0 .999.447 1.735 1.341 2.208.893.473 2.418.71 4.573.71h6.309c4.836 0 8.516.788 11.039 2.365 2.576 1.525 3.864 4.048 3.864 7.57 0 2.681-.893 5.073-2.681 7.176-1.787 2.156-4.311 3.838-7.57 5.047-3.259 1.209-7.123 1.814-11.592 1.814Zm.868-36.037c1.524 0 2.786-.552 3.785-1.656 1.051-1.104 1.577-2.734 1.577-4.89 0-2.05-.526-3.6-1.577-4.652-.999-1.104-2.261-1.656-3.785-1.656-1.525 0-2.813.526-3.864 1.577-.999 1.052-1.498 2.629-1.498 4.732 0 2.155.499 3.785 1.498 4.889 1.051 1.104 2.339 1.656 3.864 1.656Zm.946 28.782c2.629 0 4.784-.473 6.466-1.42 1.682-.946 2.524-2.076 2.524-3.39 0-1.21-.526-2.024-1.578-2.445-.998-.42-2.47-.63-4.415-.63h-4.022c-1.314 0-2.418-.053-3.312-.158a12.363 12.363 0 0 1-2.208-.316c-1.419 1.262-2.129 2.55-2.129 3.864 0 1.472.788 2.576 2.366 3.312 1.629.789 3.732 1.183 6.308 1.183Zm40.309 7.255c-3.049 0-5.809-.342-8.279-1.026-2.471-.683-4.443-1.76-5.915-3.233-1.472-1.472-2.208-3.364-2.208-5.677 0-3.154 1.867-5.783 5.599-7.886v-.315a10.198 10.198 0 0 1-2.602-2.602c-.684-1.052-1.025-2.392-1.025-4.022 0-1.42.42-2.786 1.261-4.1a10.898 10.898 0 0 1 3.155-3.234v-.315c-1.367-.946-2.603-2.313-3.707-4.1-1.051-1.788-1.577-3.812-1.577-6.072 0-3.155.763-5.757 2.287-7.807 1.525-2.103 3.522-3.68 5.993-4.731 2.471-1.052 5.1-1.577 7.886-1.577 2.313 0 4.337.315 6.072.946h14.272v8.437h-6.229c.368.579.657 1.315.867 2.208.263.894.395 1.867.395 2.918 0 2.996-.684 5.467-2.051 7.412-1.367 1.945-3.206 3.391-5.52 4.337-2.313.947-4.915 1.42-7.806 1.42-1.525 0-3.102-.263-4.732-.789-.946.789-1.419 1.761-1.419 2.918 0 .999.447 1.735 1.341 2.208.893.473 2.418.71 4.573.71h6.309c4.836 0 8.516.788 11.039 2.365 2.576 1.525 3.864 4.048 3.864 7.57 0 2.681-.893 5.073-2.681 7.176-1.787 2.156-4.311 3.838-7.57 5.047-3.259 1.209-7.123 1.814-11.592 1.814Zm.868-36.037c1.524 0 2.786-.552 3.785-1.656 1.051-1.104 1.577-2.734 1.577-4.89 0-2.05-.526-3.6-1.577-4.652-.999-1.104-2.261-1.656-3.785-1.656-1.525 0-2.813.526-3.864 1.577-.999 1.052-1.498 2.629-1.498 4.732 0 2.155.499 3.785 1.498 4.889 1.051 1.104 2.339 1.656 3.864 1.656Zm.946 28.782c2.629 0 4.784-.473 6.466-1.42 1.682-.946 2.524-2.076 2.524-3.39 0-1.21-.526-2.024-1.578-2.445-.998-.42-2.47-.63-4.415-.63h-4.022c-1.314 0-2.418-.053-3.312-.158a12.363 12.363 0 0 1-2.208-.316c-1.419 1.262-2.129 2.55-2.129 3.864 0 1.472.788 2.576 2.366 3.312 1.629.789 3.732 1.183 6.308 1.183Zm26.352-9.384V38.91h11.592v39.112H308.57Zm5.756-44.869c-1.945 0-3.522-.552-4.731-1.656-1.209-1.104-1.814-2.576-1.814-4.416 0-1.84.605-3.311 1.814-4.415s2.786-1.656 4.731-1.656c1.945 0 3.523.552 4.732 1.656 1.209 1.104 1.813 2.575 1.813 4.415 0 1.84-.604 3.312-1.813 4.416-1.209 1.104-2.787 1.656-4.732 1.656Zm16.037 44.87V38.91h9.463l.788 4.968h.316a30.09 30.09 0 0 1 5.519-4.1c2.051-1.21 4.39-1.814 7.019-1.814 4.258 0 7.333 1.419 9.226 4.258 1.945 2.786 2.917 6.624 2.917 11.513v24.287H354.02v-22.79c0-2.838-.395-4.783-1.183-5.834-.736-1.052-1.945-1.578-3.628-1.578-1.472 0-2.733.342-3.785 1.026-1.051.63-2.208 1.55-3.469 2.76v26.416h-11.592Zm59.084 16.638c-3.049 0-5.809-.342-8.28-1.026-2.471-.683-4.442-1.76-5.914-3.233-1.472-1.472-2.208-3.364-2.208-5.677 0-3.154 1.866-5.783 5.598-7.886v-.315a10.214 10.214 0 0 1-2.602-2.602c-.683-1.052-1.025-2.392-1.025-4.022 0-1.42.421-2.786 1.262-4.1a10.882 10.882 0 0 1 3.154-3.234v-.315c-1.367-.946-2.602-2.313-3.706-4.1-1.052-1.788-1.577-3.812-1.577-6.072 0-3.155.762-5.757 2.286-7.807 1.525-2.103 3.523-3.68 5.993-4.731 2.471-1.052 5.1-1.577 7.886-1.577 2.313 0 4.337.315 6.072.946h14.273v8.437h-6.23c.368.579.657 1.315.868 2.208.262.894.394 1.867.394 2.918 0 2.996-.684 5.467-2.05 7.412-1.367 1.945-3.207 3.391-5.52 4.337-2.313.947-4.916 1.42-7.807 1.42-1.525 0-3.102-.263-4.731-.789-.947.789-1.42 1.761-1.42 2.918 0 .999.447 1.735 1.341 2.208.894.473 2.418.71 4.573.71h6.309c4.836 0 8.516.788 11.04 2.365 2.576 1.525 3.864 4.048 3.864 7.57 0 2.681-.894 5.073-2.682 7.176-1.787 2.156-4.31 3.838-7.57 5.047-3.259 1.209-7.123 1.814-11.591 1.814Zm.867-36.037c1.525 0 2.786-.552 3.785-1.656 1.051-1.104 1.577-2.734 1.577-4.89 0-2.05-.526-3.6-1.577-4.652-.999-1.104-2.26-1.656-3.785-1.656-1.525 0-2.812.526-3.864 1.577-.999 1.052-1.498 2.629-1.498 4.732 0 2.155.499 3.785 1.498 4.889 1.052 1.104 2.339 1.656 3.864 1.656Zm.946 28.782c2.629 0 4.784-.473 6.466-1.42 1.683-.946 2.524-2.076 2.524-3.39 0-1.21-.526-2.024-1.577-2.445-.999-.42-2.471-.63-4.416-.63h-4.022c-1.314 0-2.418-.053-3.312-.158a12.363 12.363 0 0 1-2.208-.316c-1.419 1.262-2.129 2.55-2.129 3.864 0 1.472.789 2.576 2.366 3.312 1.63.789 3.732 1.183 6.308 1.183Zm48.747-8.438c-4.311 0-8.28-.999-11.907-2.996-3.627-1.998-6.545-4.942-8.753-8.832-2.155-3.943-3.233-8.78-3.233-14.51 0-5.677 1.104-10.513 3.312-14.509 2.26-4.048 5.231-7.123 8.911-9.226 3.732-2.155 7.754-3.233 12.064-3.233 3.312 0 6.283.684 8.911 2.05 2.629 1.315 4.81 2.865 6.545 4.653l-6.151 7.412c-1.314-1.209-2.707-2.181-4.179-2.917-1.419-.789-3.049-1.183-4.889-1.183-2.313 0-4.442.657-6.387 1.971-1.893 1.314-3.417 3.207-4.574 5.678-1.104 2.47-1.656 5.44-1.656 8.91 0 5.257 1.13 9.358 3.391 12.302 2.26 2.944 5.283 4.416 9.068 4.416 2.103 0 3.969-.473 5.599-1.42a18.963 18.963 0 0 0 4.416-3.39l6.151 7.254c-4.311 5.047-9.857 7.57-16.639 7.57Zm23.501-.946V22.744H475.1v13.564l-.552 7.018c1.472-1.315 3.181-2.524 5.126-3.628 1.998-1.156 4.311-1.734 6.939-1.734 4.258 0 7.334 1.419 9.226 4.258 1.945 2.786 2.918 6.624 2.918 11.513v24.287h-11.592v-22.79c0-2.838-.394-4.783-1.183-5.834-.736-1.052-1.945-1.578-3.627-1.578-1.472 0-2.734.342-3.785 1.026-1.052.63-2.208 1.55-3.47 2.76v26.416h-11.592Zm54.907.946c-3.575 0-6.414-1.13-8.517-3.39-2.103-2.314-3.154-5.126-3.154-8.438 0-4.1 1.735-7.307 5.205-9.62 3.469-2.313 9.068-3.864 16.796-4.653-.105-1.735-.631-3.101-1.577-4.1-.894-1.052-2.419-1.577-4.574-1.577-1.63 0-3.286.315-4.968.946-1.682.63-3.47 1.498-5.362 2.602l-4.179-7.649a38.595 38.595 0 0 1 7.885-3.706 27.749 27.749 0 0 1 8.832-1.42c4.994 0 8.832 1.446 11.513 4.338 2.681 2.89 4.021 7.333 4.021 13.326v22.395h-9.462L530.085 74h-.315a23.64 23.64 0 0 1-5.283 3.628c-1.84.894-3.864 1.34-6.072 1.34Zm3.942-8.99c1.315 0 2.445-.288 3.391-.867.999-.63 1.998-1.445 2.997-2.444v-6.86c-4.101.525-6.94 1.366-8.517 2.523-1.577 1.104-2.365 2.418-2.365 3.943 0 1.261.394 2.208 1.183 2.838.841.579 1.945.868 3.311.868Zm41.46 8.99c-4.837 0-8.306-1.393-10.409-4.179-2.05-2.786-3.075-6.44-3.075-10.96v-15.85h-5.363v-8.596l5.993-.473 1.341-10.41h9.62v10.41h9.384v9.068h-9.384V63.67c0 2.208.447 3.812 1.341 4.81.946.947 2.182 1.42 3.706 1.42.631 0 1.262-.079 1.893-.237a12.41 12.41 0 0 0 1.813-.552l1.814 8.438c-.999.315-2.234.63-3.706.946-1.42.316-3.076.473-4.968.473Z" fill="#fff"/></svg>