<svg viewBox="0 0 80 80" fill="none" xmlns="http://www.w3.org/2000/svg" width="80" height="80"><mask id="mask__marble" maskUnits="userSpaceOnUse" x="0" y="0" width="80" height="80"><path d="M80 40C80 17.909 62.091 0 40 0S0 17.909 0 40s17.909 40 40 40 40-17.909 40-40z" fill="#fff"></path></mask><g mask="url(#mask__marble)"><path d="M80 40C80 17.909 62.091 0 40 0S0 17.909 0 40s17.909 40 40 40 40-17.909 40-40z" fill="#3b82f6"></path><path filter="url(#prefix__filter0_f)" d="M32.414 59.35L50.376 70.5H72.5v-71H33.728L26.5 13.381l19.057 27.08L32.414 59.35z" fill="#ef4444" transform="translate(-2 2) rotate(-146 40 40) scale(1.5)"></path><path filter="url(#prefix__filter0_f)" style="mix-blend-mode: overlay;" d="M22.216 24L0 46.75l14.108 38.129L78 86l-3.081-59.276-22.378 4.005 12.972 20.186-23.35 27.395L22.215 24z" fill="#a855f7" transform="translate(7 7) rotate(39 40 40) scale(1.5)"></path></g><defs><filter id="prefix__filter0_f" filterUnits="userSpaceOnUse" color-interpolation-filters="sRGB"><feFlood flood-opacity="0" result="BackgroundImageFix"></feFlood><feBlend in="SourceGraphic" in2="BackgroundImageFix" result="shape"></feBlend><feGaussianBlur stdDeviation="7" result="effect1_foregroundBlur"></feGaussianBlur></filter></defs></svg>