<svg version="1.1" id="Layer_1" xmlns="http://www.w3.org/2000/svg" xmlns:xlink="http://www.w3.org/1999/xlink" x="0px" y="0px"
	 width="100%" viewBox="0 0 1248 1357" enable-background="new 0 0 1248 1357" xml:space="preserve">
<path fill="#E72887" opacity="1.000000" stroke="none" 
	d="
M309.000000,1.000002 
	C513.360168,1.000000 717.720398,1.000000 922.747131,1.377240 
	C928.991943,2.198686 934.695862,2.048589 940.125061,3.197262 
	C957.193970,6.808596 973.049927,13.408849 987.251160,23.744389 
	C1001.552734,34.152920 1012.756897,47.166721 1021.333923,62.647976 
	C1032.022339,81.940216 1035.986328,102.707626 1036.001221,124.472176 
	C1036.012329,140.610382 1036.034790,156.748581 1035.882080,173.273254 
	C1035.475220,182.074005 1035.184204,190.487488 1035.056641,198.903427 
	C1035.035889,200.274231 1035.738770,201.655975 1036.063110,203.497299 
	C1035.679688,226.729492 1035.444580,249.499237 1034.964600,272.263824 
	C1034.645142,287.414734 1029.992554,301.558075 1023.410156,314.980835 
	C1015.465210,331.181763 1003.923035,344.661987 989.709473,355.726013 
	C969.563049,371.408112 946.486816,379.848907 921.075684,379.876495 
	C717.579224,380.097595 514.082336,380.021301 310.585663,379.906250 
	C303.898315,379.902466 297.060516,379.164673 290.551422,377.654572 
	C264.478363,371.605591 242.195343,359.098816 224.757156,338.339935 
	C206.562180,316.680176 197.216721,291.855988 197.023132,263.616791 
	C196.884903,243.451660 196.962753,223.285065 196.960724,202.644531 
	C196.966095,192.406738 196.954941,182.643539 196.967148,172.420059 
	C196.993622,152.644928 196.811798,133.327286 197.102921,114.016769 
	C197.201218,107.496346 197.953735,100.875504 199.340820,94.503784 
	C205.510162,66.164436 220.335541,43.091278 243.214386,25.396444 
	C258.826355,13.321928 276.435028,5.512575 296.188232,2.968812 
	C300.472290,2.417125 304.730103,1.661628 309.000000,1.000002 
M855.456848,237.035416 
	C817.041931,190.997269 778.634338,144.953003 740.196350,98.934166 
	C737.490845,95.695099 735.140503,91.242180 729.722290,93.376801 
	C724.772339,95.326942 726.020813,99.911705 726.018677,103.771118 
	C725.986633,161.588364 725.996338,219.405640 725.996826,277.222900 
	C725.996887,278.555817 725.954651,279.891052 726.016541,281.221252 
	C726.180908,284.755768 728.080566,286.807220 731.571167,287.094788 
	C735.271301,287.399567 737.770264,285.675873 738.232666,281.907654 
	C738.596008,278.946289 738.557983,275.925659 738.559021,272.931305 
	C738.576172,223.278442 738.571289,173.625565 738.571289,123.972702 
	C738.571289,122.083916 738.571289,120.195129 738.571289,117.059738 
	C740.572144,119.197655 741.610352,120.199371 742.527100,121.301994 
	C787.357361,175.220413 832.194092,229.133423 876.955261,283.109192 
	C879.612793,286.313843 882.485291,287.712250 886.518982,286.543640 
	C890.779785,285.309357 889.993652,281.825104 889.994324,278.737946 
	C890.006836,219.754333 890.003601,160.770721 890.003357,101.787117 
	C890.003357,100.787399 890.047302,99.784981 889.990051,98.788460 
	C889.792603,95.351730 888.271240,93.267136 884.547913,92.960091 
	C880.504150,92.626602 878.105164,94.195694 877.616150,98.262398 
	C877.398499,100.072517 877.434509,101.918869 877.435730,103.748726 
	C877.468323,154.567383 877.511353,205.386032 877.552429,256.204681 
	C877.553894,258.067566 877.552551,259.930450 877.552551,261.793335 
	C877.144348,261.883392 876.736145,261.973450 876.327942,262.063477 
	C869.530579,253.896439 862.733215,245.729385 855.456848,237.035416 
M641.500000,287.161072 
	C648.497803,287.145172 655.498413,287.242218 662.492310,287.068237 
	C666.290344,286.973755 668.163269,284.671051 668.147705,280.880615 
	C668.131897,277.030670 666.137817,275.050262 662.335815,274.867126 
	C661.005615,274.803009 659.670410,274.839783 658.337463,274.839752 
	C621.512695,274.838776 584.687988,274.838959 547.863220,274.838959 
	C545.952881,274.838959 544.042542,274.838959 542.170532,274.838959 
	C542.170532,248.092667 542.170532,222.177185 542.170532,195.842789 
	C544.460022,195.842789 546.425964,195.842789 548.391907,195.842789 
	C579.884583,195.842789 611.377197,195.843826 642.869873,195.839584 
	C644.368469,195.839386 645.903870,195.993790 647.358337,195.727554 
	C650.903931,195.078537 653.090576,192.962952 652.929626,189.211807 
	C652.781067,185.748932 650.668335,183.753922 647.298218,183.246231 
	C645.829712,183.024994 644.305237,183.159714 642.806152,183.159576 
	C611.146851,183.156479 579.487610,183.157196 547.828308,183.157196 
	C545.915222,183.157196 544.002136,183.157196 542.190063,183.157196 
	C542.190063,156.757980 542.190063,131.180649 542.190063,105.161034 
	C544.496887,105.161034 546.461914,105.161041 548.427002,105.161034 
	C584.918518,105.160942 621.409973,105.170975 657.901489,105.150864 
	C664.059326,105.147469 665.467590,103.621620 665.096008,97.861435 
	C664.769897,92.804733 661.107300,92.849876 657.520447,92.848557 
	C617.863037,92.833939 578.205566,92.835655 538.548157,92.841972 
	C530.560974,92.843246 529.002869,94.422691 529.002258,102.500450 
	C528.997925,160.820190 528.997986,219.139923 529.002014,277.459656 
	C529.002625,285.572418 530.553406,287.156158 538.523804,287.157898 
	C572.515869,287.165253 606.507935,287.161133 641.500000,287.161072 
M347.551758,268.947754 
	C373.281586,288.075989 401.640167,295.470764 433.256866,287.977600 
	C448.344696,284.401794 461.974030,277.738831 474.055817,267.982513 
	C477.540741,265.168365 478.281891,261.338593 475.974854,258.430664 
	C473.551300,255.375977 470.178192,255.256287 466.310883,258.099731 
	C464.835114,259.184814 463.415314,260.350525 461.901489,261.378632 
	C439.427216,276.642273 415.165771,281.849579 388.445221,275.226166 
	C353.439636,266.549072 321.211823,232.391373 320.802948,190.964325 
	C320.546417,164.974747 329.988708,143.256409 348.460114,125.739677 
	C371.501068,103.889565 399.010925,96.358635 430.227875,103.361397 
	C434.720917,104.369301 438.123505,102.707047 438.992401,99.145615 
	C439.898682,95.431030 437.581085,92.070305 433.410095,91.096481 
	C417.110107,87.290840 400.593750,86.622925 384.579346,91.363663 
	C347.149109,102.444130 321.807892,126.310616 311.290710,164.483932 
	C306.916656,180.359985 306.526459,196.498352 310.796448,212.590897 
	C316.788422,235.173050 328.609650,253.957764 347.551758,268.947754 
M456.328613,112.207672 
	C457.051727,115.474388 457.223999,119.001808 458.619446,121.950317 
	C461.071045,127.130325 468.270203,130.127045 473.393890,128.811798 
	C479.117065,127.342659 483.604919,122.643005 484.021637,117.682358 
	C484.702148,109.581825 481.974182,104.456604 475.656555,101.966263 
	C467.828094,98.880386 460.557861,102.601868 456.328613,112.207672 
z"/>
<path fill="#E63F91" opacity="1.000000" stroke="none" 
	d="
M1036.107300,203.032654 
	C1035.738770,201.655975 1035.035889,200.274231 1035.056641,198.903427 
	C1035.184204,190.487488 1035.475220,182.074005 1036.345337,173.318207 
	C1061.810913,173.398132 1086.729370,171.598633 1111.405884,175.988800 
	C1132.600586,179.759521 1152.230225,187.370163 1170.561279,198.749649 
	C1188.784058,210.061935 1204.069214,224.515610 1216.796265,241.508774 
	C1231.592773,261.265106 1241.402832,283.477417 1246.005371,307.850739 
	C1247.021362,313.230499 1248.002808,318.616730 1249.000000,324.000000 
	C1249.000000,618.022034 1249.000000,912.044006 1248.634521,1206.742310 
	C1247.853027,1210.842407 1247.497314,1214.274780 1247.010986,1217.688477 
	C1243.797974,1240.237915 1235.578003,1260.905273 1223.461304,1280.095947 
	C1213.170532,1296.394287 1200.431763,1310.387207 1185.263794,1322.379272 
	C1164.143921,1339.076660 1140.409180,1349.722900 1114.140869,1354.988037 
	C1108.454468,1356.127930 1102.714966,1357.003052 1097.000000,1358.000000 
	C782.644653,1358.000000 468.289307,1358.000000 153.257614,1357.634644 
	C149.157501,1356.853149 145.724060,1356.503906 142.311523,1356.010254 
	C118.456680,1352.558716 96.525146,1344.027466 76.375374,1330.869629 
	C59.233707,1319.676025 44.705254,1305.744873 32.649387,1289.183838 
	C18.370165,1269.568604 8.748662,1247.933105 4.002209,1224.141235 
	C2.931613,1218.774780 1.997145,1213.381104 1.000004,1208.000000 
	C1.000000,913.644653 1.000000,619.289307 1.363325,324.261230 
	C3.264751,303.602081 8.976924,284.729248 17.706726,266.827606 
	C28.389359,244.921448 43.605881,226.521408 62.417294,211.025757 
	C75.800926,200.001160 90.540657,191.413879 106.620483,184.943573 
	C128.588989,176.103729 151.522720,173.132675 174.981400,173.000229 
	C182.302200,172.958893 189.622986,172.920227 196.943787,172.880325 
	C196.954941,182.643539 196.966095,192.406738 196.497925,202.596786 
	C177.818192,202.920151 159.581848,202.415833 141.601654,206.021576 
	C117.809502,210.792847 96.589928,221.048996 78.453476,237.162247 
	C62.516148,251.321701 49.716469,267.897125 41.545918,287.842987 
	C35.532436,302.523041 31.094034,317.636505 31.087387,333.515259 
	C30.967396,620.150391 30.972700,906.785583 31.126589,1193.420654 
	C31.131403,1202.390015 32.165127,1211.550781 34.161354,1220.292969 
	C42.051937,1254.848755 60.598297,1282.562988 89.595192,1303.029175 
	C113.642525,1320.001953 140.487183,1328.052246 169.972687,1328.045166 
	C474.772552,1327.971802 779.572449,1327.997314 1084.372314,1328.008423 
	C1098.633423,1328.009033 1112.574585,1325.556885 1125.878906,1320.818604 
	C1155.388794,1310.309204 1179.314209,1292.214233 1196.564331,1265.822266 
	C1211.288086,1243.295288 1219.033447,1218.649658 1219.028931,1191.573364 
	C1218.981934,908.271118 1219.005981,624.968933 1218.958740,341.666718 
	C1218.957764,335.730530 1218.523926,329.777679 1217.977661,323.861603 
	C1216.561035,308.519379 1211.763794,294.113068 1205.039429,280.367584 
	C1196.143921,262.183655 1183.345825,247.138184 1167.805786,234.184036 
	C1143.358521,213.804962 1114.860962,204.513763 1083.596191,203.125732 
	C1067.796387,202.424271 1051.938721,203.022217 1036.107300,203.032654 
z"/>
<!-- <path fill="#FFFFFF" opacity="1.000000" stroke="none"  -->
<!-- <path fill="#101827" opacity="1.000000" stroke="none"  -->
<path class="dynamic-fill-2" opacity="1.000000" stroke="none"
	d="
M1249.000000,323.531342 
	C1248.002808,318.616730 1247.021362,313.230499 1246.005371,307.850739 
	C1241.402832,283.477417 1231.592773,261.265106 1216.796265,241.508774 
	C1204.069214,224.515610 1188.784058,210.061935 1170.561279,198.749649 
	C1152.230225,187.370163 1132.600586,179.759521 1111.405884,175.988800 
	C1086.729370,171.598633 1061.810913,173.398132 1036.515381,172.931747 
	C1036.034790,156.748581 1036.012329,140.610382 1036.001221,124.472176 
	C1035.986328,102.707626 1032.022339,81.940216 1021.333923,62.647976 
	C1012.756897,47.166721 1001.552734,34.152920 987.251160,23.744389 
	C973.049927,13.408849 957.193970,6.808596 940.125061,3.197262 
	C934.695862,2.048589 928.991943,2.198686 923.206848,1.377240 
	C1031.593384,1.000000 1140.186768,1.000000 1249.000000,1.000000 
	C1249.000000,108.354126 1249.000000,215.708405 1249.000000,323.531342 
z"/>
<!-- <path fill="#FFFFFF" opacity="1.000000" stroke="none"  -->
<!-- <path fill="#101827" opacity="1.000000" stroke="none"  -->
<path class="dynamic-fill-2" opacity="1.000000" stroke="none"
	d="
M196.967133,172.420059 
	C189.622986,172.920227 182.302200,172.958893 174.981400,173.000229 
	C151.522720,173.132675 128.588989,176.103729 106.620483,184.943573 
	C90.540657,191.413879 75.800926,200.001160 62.417294,211.025757 
	C43.605881,226.521408 28.389359,244.921448 17.706726,266.827606 
	C8.976924,284.729248 3.264751,303.602081 1.363325,323.794250 
	C1.000000,216.408005 1.000000,108.816002 1.000000,1.000000 
	C103.354118,1.000000 205.708405,1.000000 308.531342,1.000002 
	C304.730103,1.661628 300.472290,2.417125 296.188232,2.968812 
	C276.435028,5.512575 258.826355,13.321928 243.214386,25.396444 
	C220.335541,43.091278 205.510162,66.164436 199.340820,94.503784 
	C197.953735,100.875504 197.201218,107.496346 197.102921,114.016769 
	C196.811798,133.327286 196.993622,152.644928 196.967133,172.420059 
z"/>
<!-- <path fill="#FFFFFF" opacity="1.000000" stroke="none"  -->
<!-- <path fill="#101827" opacity="1.000000" stroke="none"  -->
<path class="dynamic-fill-2" opacity="1.000000" stroke="none"
	d="
M1097.468628,1358.000000 
	C1102.714966,1357.003052 1108.454468,1356.127930 1114.140869,1354.988037 
	C1140.409180,1349.722900 1164.143921,1339.076660 1185.263794,1322.379272 
	C1200.431763,1310.387207 1213.170532,1296.394287 1223.461304,1280.095947 
	C1235.578003,1260.905273 1243.797974,1240.237915 1247.010986,1217.688477 
	C1247.497314,1214.274780 1247.853027,1210.842407 1248.634521,1207.209229 
	C1249.000000,1257.260620 1249.000000,1307.521118 1249.000000,1358.000000 
	C1198.645996,1358.000000 1148.291626,1358.000000 1097.468628,1358.000000 
z"/>
<!-- <path fill="#FFFFFF" opacity="1.000000" stroke="none"  -->
<!-- <path fill="#101827" opacity="1.000000" stroke="none"  -->
<path class="dynamic-fill-2" opacity="1.000000" stroke="none"
	d="
M1.000004,1208.468628 
	C1.997145,1213.381104 2.931613,1218.774780 4.002209,1224.141235 
	C8.748662,1247.933105 18.370165,1269.568604 32.649387,1289.183838 
	C44.705254,1305.744873 59.233707,1319.676025 76.375374,1330.869629 
	C96.525146,1344.027466 118.456680,1352.558716 142.311523,1356.010254 
	C145.724060,1356.503906 149.157501,1356.853149 152.790634,1357.634644 
	C102.406815,1358.000000 51.813625,1358.000000 1.000000,1358.000000 
	C1.000000,1308.312622 1.000000,1258.625000 1.000004,1208.468628 
z"/>
<!-- <path fill="#FFFFFF" opacity="1.000000" stroke="none"  -->
<!-- <path fill="#101827" opacity="1.000000" stroke="none"  -->
<path class="dynamic-fill-2" opacity="1.000000" stroke="none"
	d="
M1036.063110,203.497299 
	C1051.938721,203.022217 1067.796387,202.424271 1083.596191,203.125732 
	C1114.860962,204.513763 1143.358521,213.804962 1167.805786,234.184036 
	C1183.345825,247.138184 1196.143921,262.183655 1205.039429,280.367584 
	C1211.763794,294.113068 1216.561035,308.519379 1217.977661,323.861603 
	C1218.523926,329.777679 1218.957764,335.730530 1218.958740,341.666718 
	C1219.005981,624.968933 1218.981934,908.271118 1219.028931,1191.573364 
	C1219.033447,1218.649658 1211.288086,1243.295288 1196.564331,1265.822266 
	C1179.314209,1292.214233 1155.388794,1310.309204 1125.878906,1320.818604 
	C1112.574585,1325.556885 1098.633423,1328.009033 1084.372314,1328.008423 
	C779.572449,1327.997314 474.772552,1327.971802 169.972687,1328.045166 
	C140.487183,1328.052246 113.642525,1320.001953 89.595192,1303.029175 
	C60.598297,1282.562988 42.051937,1254.848755 34.161354,1220.292969 
	C32.165127,1211.550781 31.131403,1202.390015 31.126589,1193.420654 
	C30.972700,906.785583 30.967396,620.150391 31.087387,333.515259 
	C31.094034,317.636505 35.532436,302.523041 41.545918,287.842987 
	C49.716469,267.897125 62.516148,251.321701 78.453476,237.162247 
	C96.589928,221.048996 117.809502,210.792847 141.601654,206.021576 
	C159.581848,202.415833 177.818192,202.920151 196.481400,203.071381 
	C196.962753,223.285065 196.884903,243.451660 197.023132,263.616791 
	C197.216721,291.855988 206.562180,316.680176 224.757156,338.339935 
	C242.195343,359.098816 264.478363,371.605591 290.551422,377.654572 
	C297.060516,379.164673 303.898315,379.902466 310.585663,379.906250 
	C514.082336,380.021301 717.579224,380.097595 921.075684,379.876495 
	C946.486816,379.848907 969.563049,371.408112 989.709473,355.726013 
	C1003.923035,344.661987 1015.465210,331.181763 1023.410156,314.980835 
	C1029.992554,301.558075 1034.645142,287.414734 1034.964600,272.263824 
	C1035.444580,249.499237 1035.679688,226.729492 1036.063110,203.497299 
M834.487183,981.999573 
	C835.904053,981.667725 837.312378,981.092896 838.739258,981.042542 
	C850.163513,980.639038 861.638245,979.540283 873.005432,980.212097 
	C885.636963,980.958435 898.253479,982.902893 910.713989,985.205200 
	C917.059998,986.377686 924.497925,987.918762 928.912292,992.017822 
	C939.557678,1001.903015 951.227234,1006.878723 965.627197,1006.029541 
	C977.194702,1005.347290 987.318298,1000.912598 994.787537,992.437317 
	C1008.528931,976.844971 1011.016479,957.510437 1000.510986,939.021057 
	C988.184998,917.327820 959.605469,910.688416 938.764099,923.855164 
	C934.121826,926.787842 930.515015,931.832520 925.591797,933.760254 
	C909.832520,939.930969 893.146240,942.768616 876.320923,943.868103 
	C861.187134,944.857056 845.998779,944.083191 831.087708,940.946472 
	C818.630859,938.326111 806.721619,935.708313 796.273010,926.442444 
	C782.134277,913.903870 764.065491,914.057800 748.551880,922.402100 
	C735.884705,929.215271 727.956726,939.966614 725.736328,955.066467 
	C723.592346,969.645996 727.677368,981.948669 737.030334,992.285583 
	C753.773621,1010.790100 783.528137,1010.840515 801.301392,993.341858 
	C803.872314,990.810608 807.131470,988.402283 810.508545,987.382996 
	C818.057617,985.104370 825.881897,983.738098 834.487183,981.999573 
M548.482361,923.947693 
	C547.179199,924.907898 545.870605,925.860901 544.573730,926.829529 
	C529.405396,938.158875 525.803223,954.893799 528.723877,971.159302 
	C529.564209,975.839294 532.376892,980.245422 532.764954,984.903809 
	C533.159607,989.640137 531.585205,994.522095 531.035156,999.358765 
	C528.810059,1018.923889 520.675720,1036.112671 509.987488,1052.316040 
	C506.830566,1057.101929 503.237610,1060.927490 496.946228,1061.060669 
	C495.046631,1061.100952 493.028931,1061.558105 491.291138,1062.331665 
	C469.187897,1072.170532 459.264984,1090.099609 463.389038,1112.881958 
	C469.247528,1145.246094 505.300507,1158.724609 531.877808,1141.517212 
	C549.147217,1130.336182 556.606506,1107.353638 548.422424,1087.894531 
	C547.070007,1084.678955 544.226868,1081.413452 544.458008,1078.351074 
	C544.924255,1072.173706 546.634155,1065.993164 548.537720,1060.039917 
	C553.396362,1044.844360 560.602539,1030.715088 571.103210,1018.700378 
	C576.630615,1012.375977 582.107239,1005.703003 590.341125,1002.061096 
	C595.407837,999.820068 600.564636,996.799805 604.362122,992.858582 
	C615.359009,981.445862 619.450134,967.115845 615.719727,951.979919 
	C610.154114,929.397888 594.082581,918.491699 572.661133,917.095154 
	C564.249573,916.546814 556.410950,919.421570 548.482361,923.947693 
M740.038574,645.869934 
	C740.567627,643.843201 741.182800,641.834473 741.612427,639.786865 
	C745.633728,620.621826 754.178223,603.536011 766.409790,588.451782 
	C770.678467,583.187500 775.096802,577.776794 782.693665,575.668579 
	C788.197632,574.141113 793.616577,570.450012 797.807678,566.410522 
	C808.686890,555.924927 813.280518,543.011353 811.093994,527.632874 
	C808.520081,509.529053 796.176086,495.072876 778.788086,491.163330 
	C763.533752,487.733490 749.171265,489.844269 737.024719,501.329498 
	C724.667603,513.013794 721.051392,527.043640 723.725525,543.316284 
	C725.010071,551.133179 728.744141,558.058838 727.379150,566.913452 
	C723.960022,589.093994 715.461853,608.679871 702.034790,626.317261 
	C699.407104,629.768982 696.305481,632.380432 691.334351,633.720459 
	C684.554382,635.548035 677.593994,638.994141 672.293396,643.576721 
	C658.540833,655.466248 654.849426,671.460144 659.228210,688.505127 
	C663.977783,706.993347 677.689819,718.474426 696.487366,720.833130 
	C712.464783,722.837952 726.314392,717.563049 736.694397,704.765930 
	C746.204712,693.040833 748.684448,679.875732 745.188599,665.156799 
	C743.708923,658.926697 738.684387,653.723206 740.038574,645.869934 
M224.438782,1073.052612 
	C224.171402,1073.642456 224.025299,1074.337158 223.618942,1074.806641 
	C213.705780,1086.259766 210.705566,1099.800415 214.213272,1114.022095 
	C220.690811,1140.284668 245.217743,1153.458740 269.519775,1147.660645 
	C291.976807,1142.302612 306.621735,1120.450317 303.162018,1097.346924 
	C300.737396,1081.155640 292.235260,1070.125122 278.064178,1062.391113 
	C277.393158,1055.492432 275.962189,1048.308594 276.178650,1041.174683 
	C276.475128,1031.402588 277.425598,1021.553162 279.274017,1011.963989 
	C280.266296,1006.816284 281.475586,1001.437012 286.699005,997.500977 
	C300.563019,987.053955 305.148865,972.685242 303.120819,955.486633 
	C300.271271,931.321899 275.464172,913.705322 251.411728,917.770691 
	C228.334137,921.671326 213.213272,940.523804 213.107162,962.329407 
	C213.031326,977.908997 219.824005,990.435913 232.358582,999.816284 
	C233.494125,1000.666077 234.534348,1002.013489 234.990387,1003.344971 
	C240.691574,1019.991638 242.139618,1037.093750 239.939468,1054.497314 
	C239.314178,1059.443604 238.358643,1064.150757 232.528625,1066.355347 
	C229.641129,1067.447388 227.466614,1070.424805 224.438782,1073.052612 
M303.996674,824.199890 
	C303.595306,819.629883 303.820770,814.897888 302.688049,810.516968 
	C296.589386,786.929260 273.898499,772.660522 250.427811,776.840759 
	C227.467682,780.930054 213.420822,799.910095 213.145920,820.741333 
	C212.955490,835.170044 218.443909,847.427551 230.121719,856.725037 
	C241.761093,865.992004 254.973495,868.570740 268.919006,865.380371 
	C284.491241,861.817871 295.661774,852.250488 300.983795,836.762939 
	C302.282532,832.983521 302.985443,828.999390 303.996674,824.199890 
M222.962036,708.442505 
	C234.303848,722.217041 249.353973,727.620422 266.380737,724.749817 
	C288.030670,721.099854 303.300262,703.965759 303.793091,681.315613 
	C304.157562,664.566406 297.017212,651.089722 282.389862,641.642700 
	C266.586395,631.436157 243.065140,633.153015 228.922852,645.563293 
	C210.939606,661.344238 207.559647,688.379150 222.962036,708.442505 
M231.999542,571.509155 
	C237.433395,575.821716 243.660980,577.846191 250.460480,579.280945 
	C266.139557,582.589478 286.281616,575.196838 294.982269,562.093811 
	C302.350525,550.997375 306.197968,538.877136 302.794006,525.720947 
	C301.103485,519.187195 298.368500,512.372192 294.263947,507.125641 
	C284.797852,495.025909 272.087982,489.119293 256.191620,489.861328 
	C241.047012,490.568268 229.583771,497.309814 221.070053,509.210785 
	C214.006592,519.084473 211.620010,530.252808 213.947662,542.406799 
	C216.208801,554.213501 221.390503,564.067322 231.999542,571.509155 
M1071.000122,1096.595093 
	C1069.105835,1085.676025 1064.057617,1076.753540 1055.307495,1069.671753 
	C1044.821777,1061.185181 1032.609375,1057.930176 1019.998352,1060.300415 
	C992.220093,1065.521606 978.223389,1089.006714 984.114502,1115.372681 
	C988.737976,1136.065308 1006.099182,1148.220337 1025.966187,1148.868286 
	C1045.657471,1149.510376 1062.591919,1138.119141 1069.323730,1118.992065 
	C1071.711548,1112.207520 1073.542480,1104.884888 1071.000122,1096.595093 
M940.999878,827.325623 
	C940.999878,822.164001 941.423645,816.959839 940.911743,811.849548 
	C939.845032,801.201111 934.555237,792.375488 926.749634,785.482178 
	C917.774719,777.556091 906.914917,774.411987 894.786438,774.907593 
	C880.323242,775.498657 869.513184,782.118958 860.946411,793.318726 
	C847.190552,811.302307 850.988098,841.563049 870.435547,854.944092 
	C882.100586,862.970276 894.467773,866.053101 908.536926,862.153076 
	C926.284790,857.233154 936.431274,845.493591 940.999878,827.325623 
M680.005615,807.554810 
	C677.632080,797.336853 671.982483,789.332092 663.617554,783.115723 
	C652.992920,775.220093 640.748230,773.109802 628.309875,775.486084 
	C607.078491,779.542358 591.844177,799.134033 592.801147,820.861816 
	C593.874023,845.220825 612.231262,862.924866 635.636597,863.843079 
	C650.001587,864.406616 662.752625,858.982483 671.689636,847.545715 
	C680.606079,836.135376 684.503479,822.999329 680.005615,807.554810 
z"/>
<path fill="#FFFDFE" opacity="1.000000" stroke="none" 
	d="
M855.696350,237.298874 
	C862.733215,245.729385 869.530579,253.896439 876.327942,262.063477 
	C876.736145,261.973450 877.144348,261.883392 877.552551,261.793335 
	C877.552551,259.930450 877.553894,258.067566 877.552429,256.204681 
	C877.511353,205.386032 877.468323,154.567383 877.435730,103.748726 
	C877.434509,101.918869 877.398499,100.072517 877.616150,98.262398 
	C878.105164,94.195694 880.504150,92.626602 884.547913,92.960091 
	C888.271240,93.267136 889.792603,95.351730 889.990051,98.788460 
	C890.047302,99.784981 890.003357,100.787399 890.003357,101.787117 
	C890.003601,160.770721 890.006836,219.754333 889.994324,278.737946 
	C889.993652,281.825104 890.779785,285.309357 886.518982,286.543640 
	C882.485291,287.712250 879.612793,286.313843 876.955261,283.109192 
	C832.194092,229.133423 787.357361,175.220413 742.527100,121.301994 
	C741.610352,120.199371 740.572144,119.197655 738.571289,117.059738 
	C738.571289,120.195129 738.571289,122.083916 738.571289,123.972702 
	C738.571289,173.625565 738.576172,223.278442 738.559021,272.931305 
	C738.557983,275.925659 738.596008,278.946289 738.232666,281.907654 
	C737.770264,285.675873 735.271301,287.399567 731.571167,287.094788 
	C728.080566,286.807220 726.180908,284.755768 726.016541,281.221252 
	C725.954651,279.891052 725.996887,278.555817 725.996826,277.222900 
	C725.996338,219.405640 725.986633,161.588364 726.018677,103.771118 
	C726.020813,99.911705 724.772339,95.326942 729.722290,93.376801 
	C735.140503,91.242180 737.490845,95.695099 740.196350,98.934166 
	C778.634338,144.953003 817.041931,190.997269 855.696350,237.298874 
z"/>
<path fill="#FFFFFF" opacity="1.000000" stroke="none" 
	d="
M641.000000,287.161133 
	C606.507935,287.161133 572.515869,287.165253 538.523804,287.157898 
	C530.553406,287.156158 529.002625,285.572418 529.002014,277.459656 
	C528.997986,219.139923 528.997925,160.820190 529.002258,102.500450 
	C529.002869,94.422691 530.560974,92.843246 538.548157,92.841972 
	C578.205566,92.835655 617.863037,92.833939 657.520447,92.848557 
	C661.107300,92.849876 664.769897,92.804733 665.096008,97.861435 
	C665.467590,103.621620 664.059326,105.147469 657.901489,105.150864 
	C621.409973,105.170975 584.918518,105.160942 548.427002,105.161034 
	C546.461914,105.161041 544.496887,105.161034 542.190063,105.161034 
	C542.190063,131.180649 542.190063,156.757980 542.190063,183.157196 
	C544.002136,183.157196 545.915222,183.157196 547.828308,183.157196 
	C579.487610,183.157196 611.146851,183.156479 642.806152,183.159576 
	C644.305237,183.159714 645.829712,183.024994 647.298218,183.246231 
	C650.668335,183.753922 652.781067,185.748932 652.929626,189.211807 
	C653.090576,192.962952 650.903931,195.078537 647.358337,195.727554 
	C645.903870,195.993790 644.368469,195.839386 642.869873,195.839584 
	C611.377197,195.843826 579.884583,195.842789 548.391907,195.842789 
	C546.425964,195.842789 544.460022,195.842789 542.170532,195.842789 
	C542.170532,222.177185 542.170532,248.092667 542.170532,274.838959 
	C544.042542,274.838959 545.952881,274.838959 547.863220,274.838959 
	C584.687988,274.838959 621.512695,274.838776 658.337463,274.839752 
	C659.670410,274.839783 661.005615,274.803009 662.335815,274.867126 
	C666.137817,275.050262 668.131897,277.030670 668.147705,280.880615 
	C668.163269,284.671051 666.290344,286.973755 662.492310,287.068237 
	C655.498413,287.242218 648.497803,287.145172 641.000000,287.161133 
z"/>
<path fill="#FFFCFD" opacity="1.000000" stroke="none" 
	d="
M347.272583,268.726990 
	C328.609650,253.957764 316.788422,235.173050 310.796448,212.590897 
	C306.526459,196.498352 306.916656,180.359985 311.290710,164.483932 
	C321.807892,126.310616 347.149109,102.444130 384.579346,91.363663 
	C400.593750,86.622925 417.110107,87.290840 433.410095,91.096481 
	C437.581085,92.070305 439.898682,95.431030 438.992401,99.145615 
	C438.123505,102.707047 434.720917,104.369301 430.227875,103.361397 
	C399.010925,96.358635 371.501068,103.889565 348.460114,125.739677 
	C329.988708,143.256409 320.546417,164.974747 320.802948,190.964325 
	C321.211823,232.391373 353.439636,266.549072 388.445221,275.226166 
	C415.165771,281.849579 439.427216,276.642273 461.901489,261.378632 
	C463.415314,260.350525 464.835114,259.184814 466.310883,258.099731 
	C470.178192,255.256287 473.551300,255.375977 475.974854,258.430664 
	C478.281891,261.338593 477.540741,265.168365 474.055817,267.982513 
	C461.974030,277.738831 448.344696,284.401794 433.256866,287.977600 
	C401.640167,295.470764 373.281586,288.075989 347.272583,268.726990 
z"/>
<path fill="#0D0E51" opacity="1.000000" stroke="none" 
	d="
M456.583527,111.903275 
	C460.557861,102.601868 467.828094,98.880386 475.656555,101.966263 
	C481.974182,104.456604 484.702148,109.581825 484.021637,117.682358 
	C483.604919,122.643005 479.117065,127.342659 473.393890,128.811798 
	C468.270203,130.127045 461.071045,127.130325 458.619446,121.950317 
	C457.223999,119.001808 457.051727,115.474388 456.583527,111.903275 
z"/>
<path class="dynamic-fill" opacity="1.000000" stroke="none" 
	d="
M834.040649,981.999878 
	C825.881897,983.738098 818.057617,985.104370 810.508545,987.382996 
	C807.131470,988.402283 803.872314,990.810608 801.301392,993.341858 
	C783.528137,1010.840515 753.773621,1010.790100 737.030334,992.285583 
	C727.677368,981.948669 723.592346,969.645996 725.736328,955.066467 
	C727.956726,939.966614 735.884705,929.215271 748.551880,922.402100 
	C764.065491,914.057800 782.134277,913.903870 796.273010,926.442444 
	C806.721619,935.708313 818.630859,938.326111 831.087708,940.946472 
	C845.998779,944.083191 861.187134,944.857056 876.320923,943.868103 
	C893.146240,942.768616 909.832520,939.930969 925.591797,933.760254 
	C930.515015,931.832520 934.121826,926.787842 938.764099,923.855164 
	C959.605469,910.688416 988.184998,917.327820 1000.510986,939.021057 
	C1011.016479,957.510437 1008.528931,976.844971 994.787537,992.437317 
	C987.318298,1000.912598 977.194702,1005.347290 965.627197,1006.029541 
	C951.227234,1006.878723 939.557678,1001.903015 928.912292,992.017822 
	C924.497925,987.918762 917.059998,986.377686 910.713989,985.205200 
	C898.253479,982.902893 885.636963,980.958435 873.005432,980.212097 
	C861.638245,979.540283 850.163513,980.639038 838.739258,981.042542 
	C837.312378,981.092896 835.904053,981.667725 834.040649,981.999878 
z"/>
<path class="dynamic-fill" opacity="1.000000" stroke="none" 
	d="
M548.765442,923.694092 
	C556.410950,919.421570 564.249573,916.546814 572.661133,917.095154 
	C594.082581,918.491699 610.154114,929.397888 615.719727,951.979919 
	C619.450134,967.115845 615.359009,981.445862 604.362122,992.858582 
	C600.564636,996.799805 595.407837,999.820068 590.341125,1002.061096 
	C582.107239,1005.703003 576.630615,1012.375977 571.103210,1018.700378 
	C560.602539,1030.715088 553.396362,1044.844360 548.537720,1060.039917 
	C546.634155,1065.993164 544.924255,1072.173706 544.458008,1078.351074 
	C544.226868,1081.413452 547.070007,1084.678955 548.422424,1087.894531 
	C556.606506,1107.353638 549.147217,1130.336182 531.877808,1141.517212 
	C505.300507,1158.724609 469.247528,1145.246094 463.389038,1112.881958 
	C459.264984,1090.099609 469.187897,1072.170532 491.291138,1062.331665 
	C493.028931,1061.558105 495.046631,1061.100952 496.946228,1061.060669 
	C503.237610,1060.927490 506.830566,1057.101929 509.987488,1052.316040 
	C520.675720,1036.112671 528.810059,1018.923889 531.035156,999.358765 
	C531.585205,994.522095 533.159607,989.640137 532.764954,984.903809 
	C532.376892,980.245422 529.564209,975.839294 528.723877,971.159302 
	C525.803223,954.893799 529.405396,938.158875 544.573730,926.829529 
	C545.870605,925.860901 547.179199,924.907898 548.765442,923.694092 
z"/>
<path class="dynamic-fill" opacity="1.000000" stroke="none" 
	d="
M740.021057,646.314514 
	C738.684387,653.723206 743.708923,658.926697 745.188599,665.156799 
	C748.684448,679.875732 746.204712,693.040833 736.694397,704.765930 
	C726.314392,717.563049 712.464783,722.837952 696.487366,720.833130 
	C677.689819,718.474426 663.977783,706.993347 659.228210,688.505127 
	C654.849426,671.460144 658.540833,655.466248 672.293396,643.576721 
	C677.593994,638.994141 684.554382,635.548035 691.334351,633.720459 
	C696.305481,632.380432 699.407104,629.768982 702.034790,626.317261 
	C715.461853,608.679871 723.960022,589.093994 727.379150,566.913452 
	C728.744141,558.058838 725.010071,551.133179 723.725525,543.316284 
	C721.051392,527.043640 724.667603,513.013794 737.024719,501.329498 
	C749.171265,489.844269 763.533752,487.733490 778.788086,491.163330 
	C796.176086,495.072876 808.520081,509.529053 811.093994,527.632874 
	C813.280518,543.011353 808.686890,555.924927 797.807678,566.410522 
	C793.616577,570.450012 788.197632,574.141113 782.693665,575.668579 
	C775.096802,577.776794 770.678467,583.187500 766.409790,588.451782 
	C754.178223,603.536011 745.633728,620.621826 741.612427,639.786865 
	C741.182800,641.834473 740.567627,643.843201 740.021057,646.314514 
z"/>
<path class="dynamic-fill" opacity="1.000000" stroke="none" 
	d="
M224.704147,1072.800903 
	C227.466614,1070.424805 229.641129,1067.447388 232.528625,1066.355347 
	C238.358643,1064.150757 239.314178,1059.443604 239.939468,1054.497314 
	C242.139618,1037.093750 240.691574,1019.991638 234.990387,1003.344971 
	C234.534348,1002.013489 233.494125,1000.666077 232.358582,999.816284 
	C219.824005,990.435913 213.031326,977.908997 213.107162,962.329407 
	C213.213272,940.523804 228.334137,921.671326 251.411728,917.770691 
	C275.464172,913.705322 300.271271,931.321899 303.120819,955.486633 
	C305.148865,972.685242 300.563019,987.053955 286.699005,997.500977 
	C281.475586,1001.437012 280.266296,1006.816284 279.274017,1011.963989 
	C277.425598,1021.553162 276.475128,1031.402588 276.178650,1041.174683 
	C275.962189,1048.308594 277.393158,1055.492432 278.064178,1062.391113 
	C292.235260,1070.125122 300.737396,1081.155640 303.162018,1097.346924 
	C306.621735,1120.450317 291.976807,1142.302612 269.519775,1147.660645 
	C245.217743,1153.458740 220.690811,1140.284668 214.213272,1114.022095 
	C210.705566,1099.800415 213.705780,1086.259766 223.618942,1074.806641 
	C224.025299,1074.337158 224.171402,1073.642456 224.704147,1072.800903 
z"/>
<path class="dynamic-fill" opacity="1.000000" stroke="none" 
	d="
M303.979492,824.654663 
	C302.985443,828.999390 302.282532,832.983521 300.983795,836.762939 
	C295.661774,852.250488 284.491241,861.817871 268.919006,865.380371 
	C254.973495,868.570740 241.761093,865.992004 230.121719,856.725037 
	C218.443909,847.427551 212.955490,835.170044 213.145920,820.741333 
	C213.420822,799.910095 227.467682,780.930054 250.427811,776.840759 
	C273.898499,772.660522 296.589386,786.929260 302.688049,810.516968 
	C303.820770,814.897888 303.595306,819.629883 303.979492,824.654663 
z"/>
<path class="dynamic-fill" opacity="1.000000" stroke="none" 
	d="
M222.694565,708.196838 
	C207.559647,688.379150 210.939606,661.344238 228.922852,645.563293 
	C243.065140,633.153015 266.586395,631.436157 282.389862,641.642700 
	C297.017212,651.089722 304.157562,664.566406 303.793091,681.315613 
	C303.300262,703.965759 288.030670,721.099854 266.380737,724.749817 
	C249.353973,727.620422 234.303848,722.217041 222.694565,708.196838 
z"/>
<path class="dynamic-fill" opacity="1.000000" stroke="none" 
	d="
M231.712402,571.277954 
	C221.390503,564.067322 216.208801,554.213501 213.947662,542.406799 
	C211.620010,530.252808 214.006592,519.084473 221.070053,509.210785 
	C229.583771,497.309814 241.047012,490.568268 256.191620,489.861328 
	C272.087982,489.119293 284.797852,495.025909 294.263947,507.125641 
	C298.368500,512.372192 301.103485,519.187195 302.794006,525.720947 
	C306.197968,538.877136 302.350525,550.997375 294.982269,562.093811 
	C286.281616,575.196838 266.139557,582.589478 250.460480,579.280945 
	C243.660980,577.846191 237.433395,575.821716 231.712402,571.277954 
z"/>
<path class="dynamic-fill" opacity="1.000000" stroke="none" 
	d="
M1071.002930,1097.037842 
	C1073.542480,1104.884888 1071.711548,1112.207520 1069.323730,1118.992065 
	C1062.591919,1138.119141 1045.657471,1149.510376 1025.966187,1148.868286 
	C1006.099182,1148.220337 988.737976,1136.065308 984.114502,1115.372681 
	C978.223389,1089.006714 992.220093,1065.521606 1019.998352,1060.300415 
	C1032.609375,1057.930176 1044.821777,1061.185181 1055.307495,1069.671753 
	C1064.057617,1076.753540 1069.105835,1085.676025 1071.002930,1097.037842 
z"/>
<path class="dynamic-fill" opacity="1.000000" stroke="none" 
	d="
M940.998657,827.761841 
	C936.431274,845.493591 926.284790,857.233154 908.536926,862.153076 
	C894.467773,866.053101 882.100586,862.970276 870.435547,854.944092 
	C850.988098,841.563049 847.190552,811.302307 860.946411,793.318726 
	C869.513184,782.118958 880.323242,775.498657 894.786438,774.907593 
	C906.914917,774.411987 917.774719,777.556091 926.749634,785.482178 
	C934.555237,792.375488 939.845032,801.201111 940.911743,811.849548 
	C941.423645,816.959839 940.999878,822.164001 940.998657,827.761841 
z"/>
<path class="dynamic-fill" opacity="1.000000" stroke="none" 
	d="
M680.033142,807.982788 
	C684.503479,822.999329 680.606079,836.135376 671.689636,847.545715 
	C662.752625,858.982483 650.001587,864.406616 635.636597,863.843079 
	C612.231262,862.924866 593.874023,845.220825 592.801147,820.861816 
	C591.844177,799.134033 607.078491,779.542358 628.309875,775.486084 
	C640.748230,773.109802 652.992920,775.220093 663.617554,783.115723 
	C671.982483,789.332092 677.632080,797.336853 680.033142,807.982788 
z"/>
<script type="text/ecmascript">
    <![CDATA[
        // Get the theme from localStorage or default to 'light'
        var theme = localStorage.theme || 'light';

        // Set the fill color based on the theme
        function setFillColor() {
			var themeColor = (theme === 'dark') ? 'white' : 'black';
			var dynamicFillElements = document.getElementsByClassName('dynamic-fill');
			var dynamicFill2Elements = document.getElementsByClassName('dynamic-fill-2');

			// Set color for elements with class 'dynamic-fill'
			for (var i = 0; i < dynamicFillElements.length; i++) {
				dynamicFillElements[i].setAttribute('fill', themeColor);
			}

			// Set color for elements with class 'dynamic-fill-2'
			var dynamicFill2Color = (theme === 'dark') ? '#101827' : '#FFFFFF';
			for (var j = 0; j < dynamicFill2Elements.length; j++) {
				dynamicFill2Elements[j].setAttribute('fill', dynamicFill2Color);
			}
		}

        // Call the function when the SVG is loaded
        window.addEventListener('DOMContentLoaded', setFillColor);

        // Listen for changes in the localStorage and update the theme
        window.addEventListener('storage', function (event) {
            if (event.key === 'theme') {
                theme = localStorage.theme || 'light';
                setFillColor();
            }
        });
    ]]>
</script>
</svg>