<?xml version="1.0" encoding="utf-8"?>
<!-- Generator: Adobe Illustrator 22.1.0, SVG Export Plug-In . SVG Version: 6.00 Build 0)  -->
<svg version="1.1" id="Capa_1" xmlns="http://www.w3.org/2000/svg" xmlns:xlink="http://www.w3.org/1999/xlink" x="0px" y="0px"
	 viewBox="0 0 549.3 226" style="enable-background:new 0 0 549.3 226;" xml:space="preserve">
<style type="text/css">
	.st0{fill:#00499B;}
	.st1{fill:#E5002C;}
	.st2{fill:#FEFEFE;}

</style>
<g>
	<g>
		<g>
			<path class="st0" d="M94.1,215.6H13.7c-7,0-12.7-5.7-12.7-12.7V23.1c0-7,5.7-12.7,12.7-12.7h80.4V215.6z"/>
			<path class="st1" d="M94.1,10.4h97.3c7,0,12.7,5.7,12.7,12.7v179.8c0,7-5.7,12.7-12.7,12.7H94.1V10.4z"/>
			<circle class="st2" cx="68.7" cy="134.1" r="20.1"/>
			<circle class="st2" cx="135.3" cy="114" r="23.3"/>
			<path class="st2" d="M77.2,159.5H60.3c-14,0-25.4,11.4-25.4,25.4v31.7h67.7v-31.7C102.6,170.9,91.1,159.5,77.2,159.5z"/>
			<path class="st2" d="M142.5,141.1H126c-17.6,0-31.9,14.4-31.9,31.9v43.6h80.4V173C174.5,155.4,160.1,141.1,142.5,141.1z"/>
			<polygon id="XMLID_5895_" class="st2" points="52.6,65.8 38.9,77 38.3,59.5 23.5,50 40,43.8 44.4,26.7 55.4,40.7 73,39.6 
				63,54.2 69.6,70.7 			"/>
			<circle class="st0" cx="77.8" cy="183.4" r="10.2"/>
			<circle class="st1" cx="118.4" cy="169" r="12.7"/>
			<path class="st0" d="M82.9,197.5H72.7c-6.8,0-12.3,5.5-12.3,12.3v6.8h35v-6.8C95.2,203,89.7,197.5,82.9,197.5z"/>
			<path class="st1" d="M122,185.9h-8c-11,0-19.7,8.9-19.7,19.7v11h47.6v-11C141.7,194.8,132.8,185.9,122,185.9z"/>
		</g>
	</g>
	<g>
		<g>
			<path class="dynamic-fill" d="M277,128.8c-18.1,0-27.8-12-27.8-33.5c0-20.1,9.6-32.8,27.8-32.8c8.9,0,16.6,1.9,22,5.4l-4.6,10
				c-3.5-2.7-9.3-4.6-15.8-4.6c-10.8,0-16.2,7.7-16.2,21.6c0,15,5.4,22.4,15.8,22.4c6.2,0,12.7-2.7,17-5.8l3.9,10
				C292.8,126.1,285.4,128.8,277,128.8z"/>
			<path class="dynamic-fill" d="M307.8,127.7v-66h12.3v17.4c0,3.1-0.8,5.8-1.2,7.3c2.7-3.1,6.9-6.6,13.5-6.6c13.5,0,17,6.9,17,18.9v28.9h-12.7V99.9
				c0-6.6-2.7-10.4-8.5-10.4c-3.1,0-6.2,1.2-8.5,2.7v35.5H307.8z"/>
			<path class="dynamic-fill" d="M363.3,127.7V89.9l-5.4-1.2V81h17.7v46.7H363.3z M362.9,61.7h12.7v11.2h-12.7V61.7z"/>
			<path class="dynamic-fill" d="M387.2,115.3V61.7h12.3v52.8c0,3.9,2.3,4.6,7.7,4.6v8.9c0,0-3.5,0.8-6.9,0.8C390.7,128.8,387.2,123.4,387.2,115.3z"/>
			<path class="dynamic-fill" d="M426.2,107.6c0,7.3,4.2,11.6,12,11.6c4.6,0,9.6-1.9,13.9-3.9l2.3,8.9c-3.9,1.9-10.4,4.6-17.7,4.6
				c-14.3,0-23.1-8.9-23.1-24.3c0-14.3,6.9-24.3,22-24.3c14.3,0,19.7,10.4,19.7,22.4v5H426.2z M434.7,89.1c-6.2,0-8.9,5.8-8.9,11.2
				h17C443.1,94.1,441.2,89.1,434.7,89.1z"/>
			<path class="dynamic-fill" d="M253.8,210.6h-6.9l17.4-64.4h15.8l16.2,64.4h-8.1l-3.9-16.6h-26.6L253.8,210.6z M269.2,152.3l-9.6,35.5h23.5l-8.5-35.5
				H269.2z"/>
			<path class="dynamic-fill" d="M320.1,211.7c-6.6,0-12-3.5-12-14.3v-28.1h-6.9v-5.4h6.9v-8.5l7.3-2.3v10.8h13.5v5.4h-13.5v28.9c0,5,1.9,7.3,6.2,7.3
				c2.3,0,5.8-1.2,7.3-1.9l1.5,5.4C328.6,210.2,324,211.7,320.1,211.7z"/>
			<path class="dynamic-fill" d="M343.7,210.6v-40.9l-5-1.2v-4.6H351v46.7H343.7z M343.3,145.4h7.7v7.7h-7.7V145.4z"/>
			<path class="dynamic-fill" d="M369.1,189.4c0,11.6,5.8,16.6,14.7,16.6c6.2,0,11.2-2.7,14.7-4.6l1.9,5c-3.9,2.3-10,5-17,5c-12.7,0-21.2-8.5-21.2-24.7
				c0-14.7,7.3-23.9,20.1-23.9c13.1,0,18.9,10.8,18.9,22.4v4.2H369.1z M381.8,168.5c-8.9,0-12.3,7.7-12.3,15.8h24.3
				C393.8,176.2,391.1,168.5,381.8,168.5z"/>
			<path class="dynamic-fill" d="M441.2,210.6v-28.1c0-8.9-2.7-13.9-10.8-13.9c-5,0-8.5,2.7-11.6,5.4v36.6h-7.3v-46.7h5l1.5,5.4c2.7-2.7,7.7-6.6,14.7-6.6
				c10.8,0,15.8,6.6,15.8,18.1v29.7h-7.3V210.6z"/>
			<path class="dynamic-fill" d="M491.3,205.2c-2.7,3.5-8.1,6.6-13.5,6.6c-11.2,0-18.9-8.1-18.9-24.3c0-14.3,6.9-24.3,19.7-24.3c5.8,0,10,1.9,12.3,3.9
				c-0.4-2.3-0.4-5-0.4-7.7v-14.7h7.3v65.9h-5.4L491.3,205.2z M490.6,171.6c-2.3-1.5-6.2-3.5-11.2-3.5c-8.9,0-13.1,6.9-13.1,18.9
				c0,11.6,3.9,18.9,12.3,18.9c4.2,0,8.1-1.9,12-5.8L490.6,171.6z"/>
			<path class="dynamic-fill" d="M516.4,189.4c0,11.6,5.8,16.6,14.7,16.6c6.2,0,11.2-2.7,14.7-4.6l1.9,5c-3.9,2.3-10,5-17,5c-12.7,0-21.2-8.5-21.2-24.7
				c0-14.7,7.3-23.9,20.1-23.9c13.1,0,18.9,10.8,18.9,22.4v4.2H516.4z M528.8,168.5c-8.9,0-12.3,7.7-12.3,15.8h24.3
				C540.7,176.2,538,168.5,528.8,168.5z"/>
		</g>
	</g>
</g>
<script type="text/ecmascript">
    <![CDATA[
        // Get the theme from localStorage or default to 'light'
        var theme = localStorage.theme || 'light';

        // Set the fill color based on the theme
        function setFillColor() {
            var themeColor = (theme === 'dark') ? 'white' : 'black';
            var elements = document.getElementsByClassName('dynamic-fill');

            for (var i = 0; i < elements.length; i++) {
                elements[i].setAttribute('fill', themeColor);
            }
        }

        // Call the function when the SVG is loaded
        window.addEventListener('DOMContentLoaded', setFillColor);

        // Listen for changes in the localStorage and update the theme
        window.addEventListener('storage', function (event) {
            if (event.key === 'theme') {
                theme = localStorage.theme || 'light';
                setFillColor();
            }
        });
    ]]>
</script>

</svg>
