<svg width="32" height="32" viewBox="0 0 32 32" fill="none" xmlns="http://www.w3.org/2000/svg">
<path d="M16.0006 25.9992C13.8266 25.999 11.7118 25.2901 9.97686 23.9799C8.2419 22.6698 6.98127 20.8298 6.38599 18.7388C5.79071 16.6478 5.89323 14.4198 6.678 12.3923C7.46278 10.3648 8.88705 8.64837 10.735 7.50308C12.5829 6.35779 14.7538 5.84606 16.9187 6.04544C19.0837 6.24481 21.1246 7.14442 22.7323 8.60795C24.34 10.0715 25.4268 12.0192 25.8281 14.1559C26.2293 16.2926 25.9232 18.5019 24.9561 20.449C24.7703 20.8042 24.7223 21.2155 24.8211 21.604L25.4211 23.8316C25.4803 24.0518 25.4805 24.2837 25.4216 24.5039C25.3627 24.7242 25.2468 24.925 25.0856 25.0862C24.9244 25.2474 24.7235 25.3633 24.5033 25.4222C24.283 25.4811 24.0512 25.4809 23.831 25.4217L21.6034 24.8217C21.2172 24.7248 20.809 24.7729 20.4558 24.9567C19.0683 25.6467 17.5457 26.0068 16.0006 26.0068V25.9992Z" fill="black"/>
</svg>
